<?xml version="1.0" encoding="UTF-8" standalone="no"?>
<svg
   id="a"
   viewBox="0 0 774.44443 440.87"
   version="1.1"
   sodipodi:docname="logo.svg"
   inkscape:version="1.1 (c68e22c387, 2021-05-23)"
   width="774.4444"
   height="440.87"
   xmlns:inkscape="http://www.inkscape.org/namespaces/inkscape"
   xmlns:sodipodi="http://sodipodi.sourceforge.net/DTD/sodipodi-0.dtd"
   xmlns:xlink="http://www.w3.org/1999/xlink"
   xmlns="http://www.w3.org/2000/svg"
   xmlns:svg="http://www.w3.org/2000/svg">
  <sodipodi:namedview
     id="namedview59"
     pagecolor="#505050"
     bordercolor="#ffffff"
     borderopacity="1"
     inkscape:pageshadow="0"
     inkscape:pageopacity="0"
     inkscape:pagecheckerboard="1"
     showgrid="false"
     units="px"
     inkscape:zoom="1.0191705"
     inkscape:cx="89.77889"
     inkscape:cy="99.590791"
     inkscape:window-width="2560"
     inkscape:window-height="1361"
     inkscape:window-x="-9"
     inkscape:window-y="-9"
     inkscape:window-maximized="1"
     inkscape:current-layer="a"
     fit-margin-top="50"
     fit-margin-left="100"
     fit-margin-right="100"
     fit-margin-bottom="50" />
  <defs
     id="defs18">
    <style
       id="style2">.d{fill:url(#c);}.e{fill:url(#b);}.f{fill:#eb3792;}.g{fill:#4d2b73;}</style>
    <linearGradient
       id="b"
       x1="435.01999"
       y1="423.01999"
       x2="485.70999"
       y2="135.53999"
       gradientUnits="userSpaceOnUse">
      <stop
         offset="0"
         stop-color="#ec3593"
         id="stop4" />
      <stop
         offset=".15"
         stop-color="#ee4d77"
         id="stop6" />
      <stop
         offset=".41"
         stop-color="#f3714f"
         id="stop8" />
      <stop
         offset=".65"
         stop-color="#f68b32"
         id="stop10" />
      <stop
         offset=".85"
         stop-color="#f89b21"
         id="stop12" />
      <stop
         offset="1"
         stop-color="#f9a11b"
         id="stop14" />
    </linearGradient>
    <linearGradient
       id="c"
       x1="426.32001"
       y1="381.38"
       x2="463.51001"
       y2="170.5"
       xlink:href="#b" />
    <linearGradient
       inkscape:collect="always"
       xlink:href="#b"
       id="linearGradient1197"
       gradientUnits="userSpaceOnUse"
       x1="435.01999"
       y1="423.01999"
       x2="485.70999"
       y2="135.53999" />
  </defs>
  <g
     id="g24"
     transform="translate(-227.01563,-85.58)">
    <path
       class="e"
       d="m 544.06,341.14 c -2.7,-2.7 -7.15,-2.75 -9.91,-0.11 l -0.18,0.18 c -1.39,1.33 -2.16,3.12 -2.19,5.04 -0.02,1.92 0.72,3.73 2.07,5.09 l 27.47,27.47 -1.51,1.33 c -22.17,19.6 -49.49,30.88 -78.98,32.62 l -2,0.12 v -16.81 l 1.77,-0.12 c 16.29,-1.07 31.81,-5.48 46.11,-13.11 1.99,-1.06 3.33,-2.97 3.66,-5.22 0.34,-2.31 -0.4,-4.57 -2.05,-6.22 -2.23,-2.23 -5.69,-2.76 -8.43,-1.3 -14.34,7.65 -30.58,11.7 -46.95,11.7 -8.98,0 -17.89,-1.2 -26.5,-3.57 -3.15,-0.86 -6.5,0.49 -8.14,3.29 -1.15,1.96 -1.32,4.28 -0.46,6.39 0.85,2.08 2.57,3.62 4.73,4.22 6.56,1.81 13.33,3.04 20.1,3.64 l 1.72,0.15 v 16.81 l -2.04,-0.16 c -31.3,-2.51 -60.76,-16.27 -82.95,-38.74 -22.21,-22.5 -35.58,-52.17 -37.66,-83.55 l -0.13,-2.02 h 16.78 v 0.15 h 7.56 c 1.8,0 3.48,-0.71 4.74,-1.99 1.26,-1.29 1.95,-3 1.95,-4.83 0,-11.46 1.9,-22.63 5.66,-33.29 1.22,-3.45 -0.23,-7.17 -3.43,-8.84 -1.85,-0.96 -4.02,-1.08 -5.96,-0.32 -1.97,0.78 -3.51,2.37 -4.22,4.38 -3.25,9.23 -5.31,18.84 -6.1,28.57 l -0.14,1.74 h -16.8 l 0.15,-2.03 c 2.42,-33 17.15,-63.69 41.47,-86.4 24.45,-22.83 56.29,-35.4 89.67,-35.4 33.38,0 63.48,11.9 87.58,33.5 l 1.49,1.33 -11.87,11.87 -1.33,-1.18 c -17.76,-15.72 -39.55,-25.41 -63.02,-28.02 -2.04,-0.23 -3.99,0.42 -5.51,1.81 -1.55,1.41 -2.41,3.42 -2.37,5.51 0.06,3.6 2.86,6.63 6.49,7.05 20.01,2.27 38.69,10.48 54,23.72 l 1.51,1.31 -7.82,8.49 c -2.59,2.7 -2.54,7.03 0.12,9.66 l 0.18,0.18 c 2.68,2.65 7.03,2.63 9.69,-0.03 l 33.88,-33.88 c 1.75,-1.75 2.7,-4.07 2.69,-6.55 -0.02,-2.47 -1,-4.79 -2.77,-6.51 l -5.02,-4.89 c -26.86,-24.4 -61.58,-37.79 -97.93,-37.79 -0.71,0 -1.42,0 -2.13,0.02 -38.78,0.56 -75.14,16.31 -102.38,44.36 -27.24,28.04 -41.93,64.85 -41.39,103.65 0.54,38.48 15.98,74.62 43.47,101.75 27.52,27.16 63.9,42.11 102.46,42.11 35.97,0 70.51,-13.22 97.25,-37.22 l 4.97,-4.88 c 1.76,-1.73 2.74,-4.04 2.75,-6.51 0.01,-2.47 -0.94,-4.79 -2.69,-6.53 l -31.16,-31.16 z"
       id="path20"
       style="fill:url(#linearGradient1197)" />
    <path
       class="d"
       d="m 498.43,217.25 c 2.8,1.11 5.93,0.45 7.97,-1.7 1.68,-1.77 2.35,-4.15 1.83,-6.54 -0.52,-2.37 -2.1,-4.24 -4.34,-5.13 -9.83,-3.93 -20.24,-5.92 -30.95,-5.92 -12.3,0 -24.17,2.64 -35.3,7.85 l -1.41,0.66 -10.04,-13.7 2,-1 c 8.15,-4.08 16.81,-7.02 25.73,-8.75 3.48,-0.67 5.95,-3.71 5.89,-7.22 -0.04,-2.14 -1.01,-4.14 -2.68,-5.49 -1.66,-1.35 -3.82,-1.89 -5.92,-1.49 -27.97,5.38 -52.86,20.99 -70.09,43.94 -1.29,1.73 -1.77,3.91 -1.29,6.01 0.47,2.06 1.81,3.81 3.69,4.79 3.15,1.64 6.99,0.76 9.14,-2.1 5.63,-7.51 12.27,-14.19 19.73,-19.86 l 1.53,-1.16 9.91,13.51 -1.48,1.13 c -20.94,15.99 -32.96,40.2 -32.96,66.42 0,26.22 11.04,48.34 30.28,64.31 l 1.23,1.02 -8.51,14.59 -1.71,-1.36 c -15.85,-12.59 -27.42,-29.37 -33.45,-48.53 -0.95,-3 -3.7,-5.02 -6.86,-5.02 -2.33,0 -4.46,1.08 -5.84,2.96 -1.36,1.86 -1.75,4.18 -1.06,6.36 8.06,25.66 25.04,47.81 47.81,62.38 1.51,0.97 3.32,1.27 5.08,0.85 1.79,-0.43 3.29,-1.54 4.23,-3.13 l 12.36,-21.1 1.6,0.83 c 11.98,6.22 24.89,9.38 38.39,9.38 10.15,0 20.05,-1.79 29.43,-5.31 2.28,-0.86 3.89,-2.73 4.41,-5.14 0.53,-2.44 -0.21,-4.94 -1.96,-6.69 -1.99,-1.99 -4.97,-2.65 -7.6,-1.66 -8.34,3.12 -17.13,4.58 -26.18,4.34 -36.39,-0.98 -65.89,-30.24 -67.16,-66.62 -0.66,-18.91 6.22,-36.82 19.37,-50.44 13.16,-13.63 30.81,-21.13 49.7,-21.13 8.81,0 17.39,1.64 25.49,4.86 z"
       id="path22"
       style="fill:url(#c)" />
  </g>
  <g
     id="g54"
     transform="translate(-227.01563,-85.58)">
    <path
       class="g"
       d="m 853.22,320.8 c -3.65,0 -6.12,-2.74 -6.12,-6.13 v -65.65 c 0,-3.39 2.48,-6.13 6.12,-6.13 3.64,0 6.12,2.74 6.12,6.13 v 65.65 c 0,3.39 -2.48,6.13 -6.12,6.13 z"
       id="path26" />
    <path
       class="g"
       d="m 565.39,291.61 c 0,2.09 -1.17,4.17 -4.69,4.17 h -38.97 c 0.65,8.99 6.78,15.77 17.59,15.77 6.78,0 10.82,-2.35 15.12,-6.39 1.04,-1.04 2.48,-1.95 4.04,-1.95 2.74,0 5.08,1.95 5.08,5.08 0,1.3 -0.65,2.48 -1.56,3.52 -4.95,5.73 -13.81,9.51 -23.2,9.51 -19.42,0 -29.71,-13.55 -29.71,-29.84 0,-16.29 12.38,-29.84 29.19,-29.84 16.81,0 27.11,13.29 27.11,29.97 z m -27.11,-20.2 c -8.99,0 -15.12,6.39 -16.29,14.47 h 32.06 c -1.04,-7.82 -6.91,-14.47 -15.77,-14.47 z"
       id="path28" />
    <path
       class="g"
       d="m 602.99,273.36 c -10.3,0 -16.55,6.78 -16.55,19.94 v 21.37 c 0,3.39 -2.61,6.13 -6.12,6.13 -3.91,0 -6.12,-2.74 -6.12,-6.13 v -46.26 c 0,-3.65 2.61,-6.26 6.25,-6.26 3.64,0 5.99,2.48 5.99,6.26 v 5.6 c 2.22,-7.43 8.34,-12.12 16.55,-12.12 3.52,0 5.73,2.48 5.73,5.73 0,3.25 -2.48,5.73 -5.73,5.73 z"
       id="path30" />
    <path
       class="g"
       d="m 664.41,291.61 c 0,2.09 -1.17,4.17 -4.69,4.17 h -38.97 c 0.65,8.99 6.78,15.77 17.59,15.77 6.78,0 10.82,-2.35 15.12,-6.39 1.04,-1.04 2.48,-1.95 4.04,-1.95 2.74,0 5.08,1.95 5.08,5.08 0,1.3 -0.65,2.48 -1.56,3.52 -4.95,5.73 -13.81,9.51 -23.2,9.51 -19.42,0 -29.71,-13.55 -29.71,-29.84 0,-16.29 12.38,-29.84 29.19,-29.84 16.81,0 27.11,13.29 27.11,29.97 z m -27.11,-20.2 c -8.99,0 -15.12,6.39 -16.29,14.47 h 32.06 c -1.04,-7.82 -6.91,-14.47 -15.77,-14.47 z"
       id="path32" />
    <path
       class="g"
       d="m 705.53,321.32 c -8.73,0 -16.55,-4.43 -20.46,-11.21 v 4.43 c 0,3.39 -2.22,6.26 -5.99,6.26 -3.77,0 -5.86,-2.74 -5.86,-6.13 v -65.65 c 0,-3.39 2.48,-6.13 6.12,-6.13 3.64,0 6.12,2.74 6.12,6.13 v 23.82 c 4.17,-6.65 11.34,-11.21 20.07,-11.21 14.99,0 27.24,11.86 27.24,29.84 0,17.98 -12.25,29.84 -27.24,29.84 z m -2.48,-49.52 c -10.56,0 -17.59,9.25 -17.59,19.68 0,10.43 7.04,19.68 17.59,19.68 10.55,0 17.46,-7.95 17.46,-19.68 0,-11.73 -6.91,-19.68 -17.46,-19.68 z"
       id="path34" />
    <path
       class="g"
       d="m 771.13,273.36 c -10.3,0 -16.55,6.78 -16.55,19.94 v 21.37 c 0,3.39 -2.61,6.13 -6.12,6.13 -3.91,0 -6.12,-2.74 -6.12,-6.13 v -46.26 c 0,-3.65 2.61,-6.26 6.25,-6.26 3.64,0 5.99,2.48 5.99,6.26 v 5.6 c 2.22,-7.43 8.34,-12.12 16.55,-12.12 3.52,0 5.73,2.48 5.73,5.73 0,3.25 -2.48,5.73 -5.73,5.73 z"
       id="path36" />
    <path
       class="g"
       d="m 837.05,314.68 c 0,3.39 -2.35,6.13 -6.12,6.13 -3.77,0 -5.99,-2.74 -5.99,-6.13 v -2.87 c -3.65,5.47 -10.56,9.51 -19.03,9.51 -18.25,0 -28.8,-13.29 -28.8,-29.84 0,-16.55 11.73,-29.84 30.1,-29.84 18.37,0 29.84,12.25 29.84,29.84 z m -29.97,-42.62 c -10.43,0 -17.72,8.73 -17.72,19.42 0,10.69 6.12,19.42 17.72,19.42 10.82,0 17.72,-9.25 17.72,-19.42 0,-11.99 -7.3,-19.42 -17.72,-19.42 z"
       id="path38" />
    <path
       class="g"
       d="m 496.85,298.37 c -2.76,0 -4.5,1.71 -5.55,2.96 -4.92,5.5 -11.31,8.28 -18.98,8.28 -16.4,0 -27,-11.09 -27,-28.25 0,-17.16 10.6,-28.25 27,-28.25 7.67,0 14.06,2.79 18.96,8.25 1.07,1.28 2.81,2.99 5.57,2.99 3.49,0 5.93,-2.39 5.93,-5.82 0,-1.6 -0.56,-3.08 -1.7,-4.51 -6.4,-8.07 -17.41,-12.89 -29.44,-12.89 -22.85,0 -39.43,16.92 -39.43,40.23 0,23.31 16.58,40.23 39.43,40.23 12.03,0 23.03,-4.82 29.44,-12.88 1.15,-1.43 1.71,-2.91 1.71,-4.52 0,-3.42 -2.44,-5.82 -5.93,-5.82 z"
       id="path40" />
    <path
       class="g"
       d="m 760.11,417.76 h -32.93 c -2.74,0 -5.09,-2.35 -5.09,-4.82 0,-1.7 0.39,-2.74 1.3,-3.91 l 26.11,-37.95 h -21.93 c -2.74,0 -5.09,-2.09 -5.09,-5.09 0,-3 2.35,-4.82 5.09,-4.82 h 31.89 c 3.26,0 5.35,1.96 5.35,5.09 0,1.43 -0.52,2.48 -1.3,3.52 l -27.1,38.08 h 23.71 c 2.74,0 5.09,1.83 5.09,5.09 0,2.87 -2.35,4.82 -5.09,4.82 z"
       id="path42" />
    <path
       class="g"
       d="m 809.18,417.76 h -32.93 c -2.74,0 -5.09,-2.35 -5.09,-4.82 0,-1.7 0.39,-2.74 1.3,-3.91 l 26.11,-37.95 h -21.93 c -2.74,0 -5.09,-2.09 -5.09,-5.09 0,-3 2.35,-4.82 5.09,-4.82 h 31.89 c 3.26,0 5.35,1.96 5.35,5.09 0,1.43 -0.52,2.48 -1.3,3.52 l -27.1,38.08 h 23.71 c 2.74,0 5.09,1.83 5.09,5.09 0,2.87 -2.35,4.82 -5.09,4.82 z"
       id="path44" />
    <path
       class="g"
       d="m 830.59,417.76 c -3.65,0 -6.13,-2.74 -6.13,-6.13 v -65.57 c 0,-3.39 2.48,-6.13 6.13,-6.13 3.65,0 6.13,2.74 6.13,6.13 v 65.57 c 0,3.39 -2.48,6.13 -6.13,6.13 z"
       id="path46" />
    <path
       class="g"
       d="m 901.45,389.59 c 0,2.09 -1.17,4.17 -4.69,4.17 h -38.99 c 0.65,9 6.78,15.78 17.6,15.78 6.78,0 10.82,-2.35 15.13,-6.39 1.04,-1.04 2.48,-1.96 4.04,-1.96 2.74,0 5.09,1.96 5.09,5.09 0,1.3 -0.65,2.48 -1.56,3.52 -4.96,5.74 -13.82,9.52 -23.21,9.52 -19.43,0 -29.73,-13.56 -29.73,-29.86 0,-16.3 12.39,-29.86 29.21,-29.86 16.82,0 27.12,13.3 27.12,29.99 z m -27.12,-20.21 c -9,0 -15.13,6.39 -16.3,14.47 h 32.08 c -1.04,-7.82 -6.91,-14.47 -15.78,-14.47 z"
       id="path48" />
    <path
       class="g"
       d="m 604.85,417.76 c -3.78,0 -6.39,-2.6 -6.39,-6.13 v -65.41 c 0,-3.78 2.48,-6.39 6.39,-6.39 h 21.01 c 19.82,0 29.6,10.82 29.6,25.82 0,15 -9.78,25.43 -29.6,25.43 h -14.88 v 20.55 c 0,3.52 -2.48,6.13 -6.13,6.13 z m 6.13,-66.45 v 28.3 h 17.36 c 9.65,0 14.6,-6.26 14.6,-13.95 0,-7.69 -4.95,-14.34 -14.6,-14.34 h -17.36 z"
       id="path50" />
    <path
       class="g"
       d="m 662.9,392.07 v -25.82 c 0,-3.39 2.74,-6.13 6.13,-6.13 3.39,0 6.13,2.74 6.13,6.13 v 27.25 c 0,8.22 5.52,14.6 14.13,14.6 8.61,0 14.26,-6.39 14.26,-14.6 v -27.25 c 0,-3.39 2.74,-6.13 6.13,-6.13 3.39,0 6.13,2.74 6.13,6.13 v 25.82 c 0,15.26 -10.74,27.25 -26.52,27.25 -15.78,0 -26.39,-12 -26.39,-27.25 z"
       id="path52" />
  </g>
  <path
     class="f"
     d="m 294.18437,390.86 c -3.48,0 -7.43,-1.07 -9.92,-3.01 -0.86,-0.69 -1.46,-1.55 -1.46,-2.49 0,-1.33 0.86,-2.23 2.19,-2.23 0.47,0 0.9,0.13 1.33,0.39 2.32,1.46 3.91,2.75 7.94,2.75 4.03,0 5.75,-1.67 5.75,-3.61 0,-2.1 -1.67,-3.18 -6.83,-4.55 -7.77,-2.06 -10.09,-4.55 -10.09,-8.85 0,-5.24 4.51,-8.03 11.34,-8.03 1.55,0 3.65,0.26 5.5,0.77 1.98,0.56 4.47,1.8 4.47,3.52 0,1.16 -0.69,2.36 -2.15,2.36 -0.34,0 -0.69,-0.04 -1.03,-0.21 -1.98,-0.9 -4.04,-1.8 -6.74,-1.8 -3.82,0 -6.14,1.03 -6.14,3.26 0,2.1 1.72,2.83 6.87,4.34 5.88,1.72 10.05,3.39 10.05,8.89 0,4.98 -3.78,8.5 -11.08,8.5 z m 52.18,-0.17 c -1.46,0 -2.62,-1.2 -2.62,-2.66 v -9.96 h -13.57 v 9.96 c 0,1.46 -1.12,2.66 -2.58,2.66 -1.46,0 -2.66,-1.2 -2.66,-2.66 v -23.96 c 0,-1.46 1.2,-2.66 2.66,-2.66 1.46,0 2.58,1.2 2.58,2.66 v 9.1 h 13.57 v -9.1 c 0,-1.46 1.16,-2.66 2.62,-2.66 1.46,0 2.62,1.2 2.62,2.66 v 23.96 c 0,1.46 -1.16,2.66 -2.62,2.66 z m 38.03,0.17 c -8.42,0 -14.68,-6.53 -14.68,-14.81 0,-8.28 6.27,-14.81 14.68,-14.81 8.41,0 14.68,6.53 14.68,14.81 0,8.28 -6.27,14.81 -14.68,14.81 z m 0,-24.9 c -5.84,0 -9.4,4.64 -9.4,10.09 0,5.45 3.56,10.09 9.4,10.09 5.84,0 9.4,-4.64 9.4,-10.09 0,-5.45 -3.56,-10.09 -9.4,-10.09 z m 61.85,15.5 6.48,-18.33 c 0.3,-1.03 1.07,-1.72 2.32,-1.72 1.59,0 2.4,1.16 2.4,2.45 0,0.21 -0.04,0.47 -0.13,0.73 l -8.72,24.48 c -0.3,0.94 -1.12,1.63 -2.41,1.63 -1.12,0 -1.98,-0.6 -2.32,-1.59 l -6.14,-18.55 -6.14,18.55 c -0.34,0.99 -1.2,1.59 -2.32,1.59 -1.29,0 -2.1,-0.69 -2.4,-1.63 l -8.72,-24.48 c -0.09,-0.26 -0.13,-0.52 -0.13,-0.73 0,-1.29 0.82,-2.45 2.41,-2.45 1.24,0 2.02,0.69 2.32,1.72 l 6.48,18.33 6.18,-18.38 c 0.34,-0.99 1.07,-1.67 2.32,-1.67 1.25,0 1.98,0.69 2.32,1.67 l 6.18,18.38 z m 50.09,2.19 c 0.56,-0.39 1.12,-0.6 1.72,-0.6 1.46,0 2.36,1.12 2.36,2.4 0,0.69 -0.3,1.25 -0.82,1.76 -2.45,2.53 -6.23,3.65 -9.58,3.65 -8.42,0 -14.6,-5.84 -14.6,-14.81 0,-8.97 6.18,-14.81 14.6,-14.81 3.35,0 7.13,1.12 9.58,3.65 0.52,0.52 0.82,1.07 0.82,1.76 0,1.29 -0.9,2.4 -2.36,2.4 -0.6,0 -1.16,-0.21 -1.72,-0.6 -1.63,-1.25 -3.39,-2.36 -6.31,-2.36 -5.63,0 -9.32,4.25 -9.32,9.96 0,5.71 3.69,9.96 9.32,9.96 2.92,0 4.68,-1.12 6.31,-2.36 z m 44.06,0.39 h -12.71 l -2.45,5.24 c -0.47,0.86 -1.07,1.42 -2.19,1.42 -1.55,0 -2.49,-1.2 -2.49,-2.45 0,-0.34 0.09,-0.69 0.26,-1.03 l 10.99,-24.43 c 0.39,-0.86 1.12,-1.37 2.23,-1.37 1.11,0 1.85,0.47 2.23,1.37 l 10.99,24.43 c 0.17,0.34 0.26,0.69 0.26,1.03 0,1.25 -0.94,2.45 -2.49,2.45 -1.12,0 -1.72,-0.52 -2.19,-1.42 l -2.45,-5.24 z m -6.35,-15.5 -4.47,10.91 h 8.93 l -4.47,-10.91 z m 44.67,22.33 c -3.48,0 -7.43,-1.07 -9.92,-3.01 -0.86,-0.69 -1.46,-1.55 -1.46,-2.49 0,-1.33 0.86,-2.23 2.19,-2.23 0.47,0 0.9,0.13 1.33,0.39 2.32,1.46 3.91,2.75 7.94,2.75 4.03,0 5.75,-1.67 5.75,-3.61 0,-2.1 -1.67,-3.18 -6.83,-4.55 -7.77,-2.06 -10.09,-4.55 -10.09,-8.85 0,-5.24 4.51,-8.03 11.34,-8.03 1.55,0 3.65,0.26 5.5,0.77 1.98,0.56 4.47,1.8 4.47,3.52 0,1.16 -0.69,2.36 -2.15,2.36 -0.34,0 -0.69,-0.04 -1.03,-0.21 -1.98,-0.9 -4.04,-1.8 -6.74,-1.8 -3.82,0 -6.14,1.03 -6.14,3.26 0,2.1 1.72,2.83 6.87,4.34 5.88,1.72 10.05,3.39 10.05,8.89 0,4.98 -3.78,8.5 -11.08,8.5 z m 51.13,-0.52 h -16.1 c -1.46,0 -2.66,-1.16 -2.66,-2.62 v -23.36 c 0,-1.46 1.2,-2.62 2.66,-2.62 h 15.46 c 1.37,0 2.49,1.03 2.49,2.4 0,1.37 -1.12,2.45 -2.49,2.45 h -12.88 v 6.83 h 7.08 c 1.33,0 2.45,1.07 2.45,2.45 0,1.38 -1.12,2.4 -2.45,2.4 h -7.08 v 7.21 h 13.53 c 1.37,0 2.49,1.07 2.49,2.45 0,1.38 -1.12,2.4 -2.49,2.4 z"
     id="path56" />
</svg>
