<?xml version="1.0" encoding="UTF-8"?>
<svg xmlns="http://www.w3.org/2000/svg" id="Layer_2" data-name="Layer 2" viewBox="0 0 1565.82 1693.8">
  <defs>
    <style>
      .cls-1 {
        fill: #50a000;
      }

      .cls-1, .cls-2, .cls-3, .cls-4, .cls-5, .cls-6, .cls-7, .cls-8, .cls-9 {
        stroke-width: 0px;
      }

      .cls-2 {
        fill: #78c814;
      }

      .cls-3 {
        fill: #2e3e52;
      }

      .cls-4 {
        fill: #141414;
      }

      .cls-5 {
        fill: #fff;
      }

      .cls-6 {
        fill: #8cdc32;
      }

      .cls-7 {
        fill: #3c8c00;
      }

      .cls-8 {
        fill: #a0f032;
      }

      .cls-9 {
        fill: #0a0a0a;
      }
    </style>
  </defs>
  <g id="Layer_1-2" data-name="Layer 1">
    <g>
      <g>
        <g>
          <circle class="cls-9" cx="782.91" cy="56.27" r="56.27" transform="translate(189.52 570.08) rotate(-45)"></circle>
          <polygon class="cls-9" points="353.95 1492.76 782.91 1492.76 782.91 1369.66 391.12 1407.72 353.95 1492.76"></polygon>
          <polygon class="cls-9" points="1211.87 1492.76 782.91 1492.76 782.91 1369.66 1174.7 1407.72 1211.87 1492.76"></polygon>
          <path class="cls-9" d="m705.83,1652.9c-37.24-20.28-72.85-42.92-105.84-67.3l-22.93-16.95v-221.16h411.69v221.15l-22.92,16.95c-32.94,24.36-68.55,47-105.83,67.31l-77.09,40.9-77.08-40.9Z"></path>
          <path class="cls-9" d="m1269.7,675.48l4.47-81.29h175.11l24,24.26,15.41,15.56-.93,13.53c-.48,6.92-.95,13.07-1.46,18.81l-.79,9.13h-215.81Z"></path>
          <path class="cls-9" d="m80.3,675.48l-.79-9.13c-.5-5.77-.98-11.92-1.45-18.81l-.93-13.53,15.41-15.56,24-24.25h175.11l4.47,81.29H80.3Z"></path>
          <path class="cls-9" d="m693.97,1598.25c-159.57-86.89-291.57-199.69-392.35-335.28-81.13-109.14-141.65-232.39-179.89-366.34-21.48-75.21-35.68-152.7-42.22-230.32-.5-5.74-.97-11.89-1.45-18.78l-.93-13.53,18.35-18.53h198.95v28.28s10.36,90.15,10.36,90.15l-46,21.1c.08.41.16.82.23,1.23,1,5.38,2.09,10.97,3.24,16.64l.05.24.02.14c.06.32.8,3.86.8,3.86.38,1.81.75,3.61,1.14,5.44.46,2.16.91,4.26,1.38,6.35l.33,1.48c.15.69.3,1.39.46,2.09.76,3.45,1.52,6.78,2.31,10.12,1.6,6.83,3.38,14.07,5.28,21.52.38,1.45.77,2.94,1.16,4.43l.25.97c.86,3.3,1.83,6.9,2.86,10.67l.04.14c.41,1.49.8,2.92,1.21,4.36l.22.78c.52,1.89,1.04,3.74,1.57,5.58,32.73,114.64,84.38,219.9,153.5,312.9,86.35,116.16,200.24,213.23,338.51,288.51l14.35,7.81,25.22,13.75v155.51l-30,15.92-88.94-47.19Z"></path>
          <path class="cls-9" d="m752.91,1629.52v-155.51l39.56-21.55c138.27-75.28,252.16-172.35,338.52-288.51,69.12-92.99,120.77-198.26,153.5-312.89.53-1.83,1.05-3.7,1.56-5.54l.25-.87c.4-1.42.8-2.87,1.2-4.32,1.01-3.68,1.98-7.29,2.91-10.85,1.19-4.52,2.44-9.44,3.83-15.05.08-.34.5-2.01.5-2.01.76-3.09,1.51-6.25,2.24-9.39l.08-.31c.39-1.65.77-3.27,1.14-4.91,1.59-6.96,3.11-13.94,4.54-20.77v-.07c.26-1.19.5-2.32.73-3.44l.9-4.45.21-1.07c.24-1.18.96-4.91,1.07-5.47l.14-.74c.3-1.49.58-2.96.85-4.43,0,0,.34-1.79.44-2.35l-46.01-21.11,10.35-90.07v-1.24s0-27.12,0-27.12h198.95l18.35,18.53-.93,13.53c-.48,6.93-.96,13.08-1.46,18.81-6.54,77.59-20.74,155.08-42.22,230.29-38.24,133.95-98.76,257.21-179.89,366.34-100.78,135.59-232.79,248.39-392.35,335.28l-88.94,47.19-30-15.92Z"></path>
          <path class="cls-1" d="m479.87,1256.95c78.67,83.95,173.12,156.16,281.96,215.43l21.08,11.48,21.08-11.48c109.44-59.59,204.33-132.28,283.26-216.83-202.6-.49-405.01,1.46-607.39,1.4Z"></path>
          <path class="cls-4" d="m1319.9,841.46c23.33-81.69,34.28-156.46,38.95-217.27H206.97c4.68,60.81,15.63,135.58,38.95,217.27,34.35,120.29,88.57,230.79,161.15,328.43,22.5,30.27,46.79,59.3,72.79,87.06,202.38.05,404.79-1.89,607.39-1.4,25.51-27.33,49.37-55.89,71.49-85.65,72.58-97.65,126.8-208.14,161.15-328.43Z"></path>
          <path class="cls-7" d="m530.53,1256.93c-24.68.03-49.35.04-74.03.01-19.5-21.89-37.97-44.54-55.37-67.94-72.16-97.07-126.05-206.89-160.18-326.42-.55-1.92-1.09-3.85-1.62-5.75-.39-1.38-1.53-5.51-1.53-5.51-1.03-3.75-2.04-7.52-3.01-11.22-.48-1.86-.97-3.71-1.44-5.54-1.92-7.48-3.76-15.01-5.49-22.39-.82-3.52-1.61-6.99-2.39-10.45-.21-.92-.41-1.85-.61-2.77l-.22-.97c-.48-2.2-.96-4.4-1.43-6.59-.41-1.91-.81-3.84-1.21-5.77l-.9-4.34c-1.17-5.78-2.31-11.58-3.37-17.27-.6-3.21-1.19-6.42-1.76-9.61-.29-1.69-.58-3.37-.87-5.05-.26-1.48-.51-2.92-.75-4.34-.12-.66-.23-1.32-.33-1.98l-.07-.42c-.19-1.11-.37-2.22-.55-3.32-5.03-30.75-8.79-62.02-11.15-92.9l-.98-12.91h45.24c3.57,52.59,12.48,123.28,33.47,201.43,1.4,5.26,2.95,10.83,4.59,16.56,32.74,114.08,84.28,218.84,153.17,311.34,18.05,24.24,37.56,47.95,58,70.48l9.52,10.5h12.54c4.19,4.42,8.44,8.8,12.73,13.14Z"></path>
          <path class="cls-7" d="m1364.55,633.48l-.99,12.91c-2.35,30.86-6.1,62.13-11.14,92.94-.63,3.81-1.27,7.65-1.95,11.51-.5,2.89-1.02,5.81-1.56,8.74l-.88,4.77c-.05.26-.1.53-.15.8-.27,1.44-.55,2.87-.83,4.32l-.24,1.3s-.81,4.1-1.07,5.43l-.22,1.1c-.22,1.11-.45,2.23-.68,3.35-.32,1.59-.66,3.23-1,4.87-1.49,7.19-3.07,14.44-4.71,21.61-.31,1.35-.62,2.69-.94,4.03l-.32,1.4c-.77,3.29-1.57,6.61-2.38,9.94-.17.69-.33,1.31-.48,1.94-1.32,5.38-2.66,10.63-3.98,15.67-.95,3.57-1.96,7.39-3.01,11.21-.5,1.83-1.01,3.67-1.53,5.51-.53,1.9-1.07,3.83-1.62,5.74-34.13,119.54-88.02,229.36-160.18,326.43-17.05,22.93-35.12,45.14-54.18,66.62-24.6-.08-49.2-.13-73.79-.14,3.8-3.87,7.57-7.77,11.3-11.69h12.54l9.52-10.5c20.44-22.52,39.95-46.24,58-70.48,68.9-92.51,120.43-197.26,153.17-311.33,1.64-5.71,3.18-11.28,4.57-16.51,21.01-78.19,29.92-148.89,33.49-201.49h45.24Z"></path>
          <path class="cls-1" d="m786.74,1441.93l-3.83,2.08-3.82-2.08c-94.82-51.63-178.02-113.6-248.56-185-24.68.03-49.35.04-74.03.01,81.39,91.34,180.88,169.31,296.76,232.41l17.65,9.61,2.2,1.2,9.8,5.33,12-6.53,17.65-9.61c116.44-63.41,216.34-141.82,297.95-233.73-24.6-.08-49.2-.13-73.79-.14-70.85,72.01-154.51,134.47-249.98,186.45Z"></path>
          <g>
            <path class="cls-9" d="m1434.53,254.48c-6.74,30.43-28.41,137.83-24.33,241.99l1,25.72-93.67,18.16c1.3,17.01,2.89,48.59,1.43,90.19-1.89,53.74-9.51,137.75-35.07,232.89-1.39,5.22-2.93,10.78-4.57,16.48-32.67,113.84-84.09,218.38-152.84,310.69-18.01,24.19-37.49,47.85-57.88,70.33l-8.93,9.84h-218.66l33.24-30,24.68-22.27c2.83-2.56,5.65-5.13,8.44-7.73,35.56-32.97,67.9-68.71,96.25-106.35,57.44-76.27,100.85-162.86,129.02-257.34l.6-2.02c47.54-160.93,35.05-291.34,34.1-300.44l-16.6-124.73,111.74-21.65c.91-12.5,2.05-25.22,3.41-38.09-2.34.01-4.67.02-7,.02-133.57,0-269.94-25.69-394.37-74.29-28.27-11.05-55.66-23.15-81.61-36.05-4.51-2.24-8.98-4.51-13.4-6.79-.13-.07-.27-.14-.4-.21l-16.2-8.4V95.9c6.02-3.46,10.75-6.33,14.14-8.43l15.86-9.88,15.85,9.87c3.39,2.11,8.13,4.98,14.15,8.44,20.87,12,57.17,31.1,106.2,50.26,74.76,29.2,194.39,64.01,339.78,64.01,39.43,0,79.34-2.55,118.64-7.58l10.98-1.41,50.5,33.07-4.48,20.23Z"></path>
            <path class="cls-9" d="m812.91,95.9v138.53l-16.19,8.39c-.14.07-.28.14-.42.21-4.41,2.3-8.88,4.56-13.39,6.8-25.91,12.89-53.29,24.98-81.6,36.04-124.42,48.61-260.79,74.3-394.38,74.3-2.33,0-4.66-.01-7-.02,1.35,12.83,2.49,25.51,3.41,37.97l111.88,20.74-16.74,125.75c-.96,9.18-13.38,139.73,34.1,300.45l.6,2.02c28.17,94.48,71.58,181.07,129.02,257.34,28.34,37.64,60.69,73.38,96.25,106.35,2.79,2.6,5.61,5.17,8.44,7.73l24.68,22.27,33.24,30h-218.66l-8.93-9.84c-20.39-22.48-39.87-46.14-57.88-70.33-68.75-92.31-120.17-196.85-152.85-310.7-1.66-5.79-3.16-11.2-4.58-16.52-25.54-95.09-33.16-179.1-35.05-232.83-1.46-41.61.13-73.19,1.43-90.2l-93.67-18.16,1-25.72c4.08-104.16-17.59-211.56-24.33-241.99l-4.48-20.23,50.5-33.07,10.98,1.41c39.3,5.03,79.21,7.58,118.64,7.58,145.42,0,265.04-34.81,339.79-64.01,49.06-19.18,85.34-38.27,106.19-50.26,6.02-3.46,10.75-6.33,14.14-8.43l15.86-9.88,15.85,9.87c3.39,2.11,8.13,4.98,14.15,8.44Z"></path>
            <path class="cls-9" d="m1290.97,423.27l-106.76,20.69,12.92,97.09c.66,6.07,14.78,143.6-35.12,312.51-.21.7-.41,1.4-.62,2.09-29.19,97.91-74.2,187.67-133.81,266.82-31.9,42.36-68.15,81.84-108.55,118.3h-136.12V216.19c24.16,12.52,55.25,27.17,92.53,41.74,120.98,47.26,253.57,72.24,383.45,72.24,13.6,0,27.24-.27,40.9-.8-3.79,28.4-7.1,60.4-8.82,93.9Z"></path>
            <path class="cls-9" d="m1336.99,296.46v138.85l-105.38,54,31.55,234.81-62.52,219.81-163.92,214.85v99.99h-164.5l34.75-31.36c39.46-35.61,75.2-74.56,106.23-115.77,58.31-77.42,102.36-165.28,130.94-261.13l.63-2.12c48.43-163.94,35.34-297.15,34.49-305.19l-15.13-113.68,109.68-21.26c1.27-19.58,3.12-39.75,5.51-60.29-6.85.13-13.68.2-20.43.2-132.09,0-266.95-25.41-390-73.47-14.94-5.84-29.64-11.98-43.99-18.37-14.36-6.39-28.38-13.05-41.99-19.92v-55.85l284.43,90.18,269.65,25.72Z"></path>
            <path class="cls-9" d="m782.91,216.19v1024.58h-136.12c-40.4-36.46-76.65-75.94-108.55-118.3-59.61-79.15-104.62-168.91-133.81-266.82-.21-.69-.41-1.39-.62-2.09-49.89-168.89-35.78-306.41-35.12-312.51l13.03-97.89-97.26-18.03-9.61-1.86c-1.72-33.5-5.03-65.5-8.82-93.9,13.66.53,27.3.8,40.9.8,129.89,0,262.49-24.98,383.46-72.24,37.28-14.57,68.36-29.21,92.52-41.74Z"></path>
            <path class="cls-9" d="m228.83,296.46v138.85s105.38,54,105.38,54l-31.55,234.81,62.52,219.81,163.92,214.85v99.99s164.5,0,164.5,0l-34.75-31.36c-39.46-35.61-75.2-74.56-106.23-115.77-58.31-77.42-102.36-165.28-130.94-261.13l-.63-2.12c-48.43-163.94-35.34-297.15-34.49-305.19l15.13-113.68-109.68-21.26c-1.27-19.58-3.12-39.75-5.51-60.29,6.85.13,13.68.2,20.43.2,132.09,0,266.95-25.41,390-73.47,14.94-5.84,29.64-11.98,43.99-18.37,14.36-6.39,28.38-13.05,41.99-19.92v-55.85s-284.43,90.18-284.43,90.18l-269.65,25.72Z"></path>
            <path class="cls-2" d="m782.91,112.93v103.26c-24.16,12.53-55.24,27.17-92.52,41.74-120.97,47.26-253.57,72.24-383.46,72.24-13.6,0-27.24-.27-40.9-.8,3.79,28.4,7.1,60.4,8.82,93.9l9.61,1.86,97.26,18.03-13.03,97.89c-.66,6.1-14.77,143.62,35.12,312.51.21.7.41,1.4.62,2.09,29.19,97.91,74.2,187.67,133.81,266.82,31.9,42.36,68.15,81.84,108.55,118.3h-127.35c-19.84-21.87-38.53-44.58-56.04-68.09-66.59-89.42-116.4-190.71-148.07-301.06-1.54-5.36-3.02-10.68-4.43-15.97-24.68-91.88-32.19-173.08-34.06-226.16-2.14-60.94,2.48-99.05,2.52-99.42l1.73-13.91-13.76-2.68-81.73-15.84c4.19-107.06-17.56-215.96-25.02-249.65l23.9-15.65c40.59,5.2,81.76,7.83,122.45,7.83,150.09,0,273.56-35.93,350.71-66.07,64.66-25.27,107.93-50.37,125.27-61.17Z"></path>
            <path class="cls-1" d="m1380.22,497.64l-95.51,18.51,1.75,13.92c.04.37,4.66,38.48,2.52,99.42-1.87,53.08-9.38,134.28-34.06,226.16-1.41,5.29-2.89,10.61-4.43,15.97-31.67,110.35-81.48,211.64-148.07,301.06-17.51,23.51-36.2,46.22-56.04,68.09h-127.35c40.4-36.46,76.65-75.94,108.55-118.3,59.61-79.15,104.62-168.91,133.81-266.82.21-.69.41-1.39.62-2.09,49.9-168.91,35.78-306.44,35.12-312.51l-12.92-97.09,106.76-20.69c1.72-33.5,5.03-65.5,8.82-93.9-13.66.53-27.3.8-40.9.8-129.88,0-262.47-24.98-383.45-72.24-37.28-14.57-68.37-29.22-92.53-41.74v-103.26c17.35,10.8,60.62,35.9,125.28,61.17,77.16,30.14,200.63,66.07,350.7,66.07,40.69,0,81.86-2.63,122.45-7.83l23.9,15.65c-7.46,33.69-29.21,142.59-25.02,249.65Z"></path>
            <path class="cls-2" d="m1402.6,260.35l-31.29,3.42s0,0,0,0c-8.47,43.07-21.91,124.98-21.61,209.23l30.52,24.64c-3.77-96.31,13.45-194.1,22.38-237.29Z"></path>
            <polygon class="cls-7" points="1380.22 497.64 1349.7 473 1251.44 492.04 1284.71 516.15 1380.22 497.64"></polygon>
            <path class="cls-6" d="m1284.71,516.15l-33.27-24.11,5.23,41.62c.25,2.14,4.3,38.4,2.32,94.78-1.78,50.6-8.96,129.76-33.05,219.43-1.32,4.96-2.76,10.14-4.29,15.47-24.38,84.96-60.08,164.82-106.11,237.36l-4.01,6.32-.22.29-.66,1.02c-10.31,15.88-21.17,31.51-32.29,46.44-14.26,19.14-29.49,37.93-45.4,56.01h-250.05v30h263.47c19.84-21.87,38.53-44.58,56.04-68.09,11.65-15.65,22.78-31.67,33.4-48.03l6.09-7.91-1.03.02c47.6-75.01,84.37-157.2,109.61-245.15,1.54-5.36,3.02-10.68,4.43-15.97,24.68-91.88,32.19-173.08,34.06-226.16,2.14-60.94-2.48-99.05-2.52-99.42l-1.75-13.92Z"></path>
            <path class="cls-6" d="m1258.89,240.17c-150.07,0-273.54-35.93-350.7-66.07-64.66-25.27-107.93-50.37-125.28-61.17v34.95s0,0,0,0c24,13.83,62.54,33.91,114.36,54.16,79.57,31.08,206.89,68.13,361.62,68.13,37.35,0,75.1-2.15,112.42-6.4l5.93-30.92c-39.26,4.86-79.03,7.32-118.36,7.32Z"></path>
            <path class="cls-6" d="m163.22,260.35l31.29,3.42s0,0,0,0c8.47,43.07,21.91,124.98,21.61,209.23l-30.52,24.64c3.77-96.31-13.45-194.1-22.38-237.29Z"></path>
            <polygon class="cls-7" points="185.6 497.64 216.12 473 314.38 492.04 281.11 516.15 185.6 497.64"></polygon>
            <path class="cls-6" d="m281.11,516.15l33.27-24.11-5.23,41.62c-.25,2.14-4.3,38.4-2.32,94.78,1.78,50.6,8.96,129.76,33.05,219.43,1.32,4.96,2.76,10.14,4.29,15.47,24.38,84.96,60.08,164.82,106.11,237.36l4.01,6.32.22.29.66,1.02c10.31,15.88,21.17,31.51,32.29,46.44,14.26,19.14,29.49,37.93,45.4,56.01h250.05v30h-136.12s-127.35,0-127.35,0c-19.84-21.87-38.53-44.58-56.04-68.09-11.65-15.65-22.78-31.67-33.4-48.03l-6.09-7.91,1.03.02c-47.6-75.01-84.37-157.2-109.61-245.15-1.54-5.36-3.02-10.68-4.43-15.97-24.68-91.88-32.19-173.08-34.06-226.16-2.14-60.94,2.48-99.05,2.52-99.42l1.75-13.92Z"></path>
            <path class="cls-1" d="m306.93,240.17c150.07,0,273.54-35.93,350.7-66.07,64.66-25.27,107.93-50.37,125.28-61.17v34.95s0,0,0,0c-24,13.83-62.54,33.91-114.36,54.16-79.57,31.08-206.89,68.13-361.62,68.13-37.35,0-75.1-2.15-112.42-6.4l-5.93-30.92c39.26,4.86,79.03,7.32,118.36,7.32Z"></path>
            <path class="cls-2" d="m1377.25,232.85l-5.93,30.92,31.29-3.42c1-4.82,1.89-8.97,2.64-12.36l-23.9-15.65c-1.36.17-2.73.34-4.09.51Z"></path>
            <path class="cls-6" d="m188.57,232.85l5.93,30.92-31.29-3.42c-1-4.82-1.89-8.97-2.64-12.36l23.9-15.65c1.36.17,2.73.34,4.09.51Z"></path>
          </g>
          <polygon class="cls-2" points="300.16 652.87 300.16 737.41 124.66 737.41 107.98 652.87 300.16 652.87"></polygon>
          <path class="cls-1" d="m1231.61,1256.37c-63.42,83.02-139.11,157.1-226.15,221.45-46.17,34.14-95.53,65.53-147.95,94.08l-74.6,39.58v-105.99l12-6.53,17.65-9.61c70.49-38.39,134.92-82.27,192.9-131.32,37.8-31.97,72.85-66.14,105.05-102.41,40.36.13,80.73.37,121.1.75Z"></path>
          <path class="cls-2" d="m1415.25,888.4c22-77.03,36.1-156.04,42.06-235.53,0-.19.03-.39.04-.59l-5.64-6.8h-88.08l-.07.91c-.16,2.16-.33,4.32-.52,6.48-2.36,28.75-5.93,57.8-10.62,86.46-.63,3.81-1.27,7.65-1.95,11.51-.5,2.89-1.02,5.81-1.56,8.74l-.88,4.77c-.05.26-.1.53-.15.8-.27,1.44-.55,2.87-.83,4.32l-.24,1.3s-.81,4.1-1.07,5.43l-.22,1.1c-.22,1.11-.45,2.23-.68,3.35-.32,1.59-.66,3.23-1,4.87-1.49,7.19-3.07,14.44-4.71,21.61-.31,1.35-.62,2.69-.94,4.03l-.32,1.4c-.77,3.29-1.57,6.61-2.38,9.94-.17.69-.33,1.31-.48,1.94-1.32,5.38-2.66,10.63-3.98,15.67-.95,3.57-1.96,7.39-3.01,11.21-.5,1.83-1.01,3.67-1.53,5.51-.53,1.9-1.07,3.83-1.62,5.74-34.13,119.54-88.02,229.36-160.18,326.43-17.05,22.93-35.12,45.14-54.18,66.62,40.36.14,80.73.37,121.11.75,2.86-3.75,5.7-7.5,8.52-11.29,78.95-106.21,137.87-226.21,175.12-356.68Z"></path>
          <path class="cls-7" d="m1457.84,652.87h-169.97c.49-8.29.86-16.09,1.11-23.37.06-1.79.12-3.56.17-5.31h144.9l17.66,21.29,5.64,6.8.49.59Z"></path>
          <path class="cls-1" d="m256.31,644.54c.02.31.05.63.08.94h-54.21l-.91-12h54.17l.87,11.06Z"></path>
          <path class="cls-2" d="m1457.84,652.87l-16.68,84.54h-161.98c4.58-31.6,7.22-60.16,8.69-84.54h169.97Z"></path>
          <path class="cls-2" d="m240.95,862.57c-.55-1.91-1.09-3.84-1.62-5.74-.52-1.84-1.03-3.68-1.53-5.51-1.05-3.82-2.06-7.64-3.01-11.21-1.32-5.04-2.66-10.29-3.98-15.67-.15-.63-.31-1.25-.48-1.94-.81-3.33-1.61-6.65-2.38-9.94l-.32-1.4c-.32-1.34-.63-2.68-.94-4.03-1.64-7.17-3.22-14.42-4.71-21.61-.34-1.64-.68-3.28-1-4.87-.23-1.12-.46-2.24-.68-3.35l-.22-1.1c-.26-1.33-1.07-5.43-1.07-5.43l-.24-1.3c-.28-1.45-.56-2.88-.83-4.32-.05-.27-.1-.54-.15-.8l-.88-4.77c-.54-2.93-1.06-5.85-1.56-8.74-.68-3.86-1.32-7.7-1.95-11.51-4.69-28.66-8.26-57.71-10.62-86.46-.19-2.16-.36-4.32-.52-6.48l-.07-.91h-88.08l-5.64,6.8c.01.2.03.4.04.59,5.96,79.49,20.06,158.5,42.06,235.53,37.25,130.47,96.17,250.47,175.12,356.68,2.51,3.38,5.06,6.73,7.61,10.08,6.54.8,13.07,1.46,19.61,1.46,34.53.18,69.06.28,103.59.32-19.5-21.89-37.97-44.53-55.37-67.94-72.16-97.07-126.05-206.89-160.18-326.43Z"></path>
          <path class="cls-1" d="m782.91,1505.49v105.99l-74.6-39.58c-52.42-28.54-101.78-59.94-147.95-94.07-87.46-64.67-163.45-139.16-227.06-222.67,6.54.8,13.07,1.46,19.61,1.46,34.53.18,69.06.28,103.59.32,31.87,35.78,66.53,69.5,103.86,101.08,57.98,49.06,122.41,92.94,192.9,131.33l17.65,9.61,12,6.53Z"></path>
          <polygon class="cls-7" points="284.62 652.87 107.98 652.87 108.47 652.28 114.11 645.48 131.77 624.19 283.3 624.19 284.62 652.87"></polygon>
          <path class="cls-1" d="m718.25,1630.08c-36.2-19.71-70.79-41.7-102.82-65.38l-12.39-9.16v-185.94h359.74v185.93l-12.39,9.16c-31.98,23.65-66.57,45.65-102.82,65.39l-64.66,34.31-64.66-34.31Z"></path>
          <path class="cls-9" d="m1174.36,1479.73c-128.58-44.66-260.28-67.3-391.45-67.3s-262.87,22.64-391.46,67.3l-37.5,13.02v-223.24h857.92v223.24l-37.5-13.03Z"></path>
          <path class="cls-9" d="m1565.82,922.09l-138.08,313.39-44.4-19.59c-9.25-4.08-19.14-6.15-29.39-6.15-40.22,0-72.94,32.73-72.94,72.95v48.5h-498.1v-409.1h782.91Z"></path>
          <path class="cls-2" d="m1517.32,953.72l-105.77,240.05-15.44-6.81c-13.3-5.87-27.48-8.85-42.16-8.85-57.66,0-104.57,46.92-104.57,104.58v16.87h-466.47v-345.84h734.41Z"></path>
          <path class="cls-9" d="m1491.45,970.59l-88.53,200.93c-14.98-6.61-31.55-10.28-48.97-10.28-67.07,0-121.44,54.37-121.44,121.45h-449.6v-312.1h708.54Z"></path>
          <path class="cls-9" d="m0,922.09l138.08,313.39,44.4-19.59c9.25-4.08,19.14-6.15,29.39-6.15,40.22,0,72.94,32.73,72.94,72.95v48.5s498.1,0,498.1,0v-409.1s-782.91,0-782.91,0Z"></path>
          <path class="cls-2" d="m48.5,953.72l105.77,240.05,15.44-6.81c13.3-5.87,27.48-8.85,42.16-8.85,57.66,0,104.57,46.92,104.57,104.58v16.87s466.47,0,466.47,0v-345.84s-734.41,0-734.41,0Z"></path>
          <path class="cls-9" d="m74.37,970.59l88.53,200.93c14.98-6.61,31.55-10.28,48.97-10.28,67.07,0,121.44,54.37,121.44,121.45h449.6s0-312.1,0-312.1H74.37Z"></path>
          <g>
            <path class="cls-5" d="m399.93,1255.39c-45.27-85.09-90.54-170.18-135.81-255.27h96.07c36.92,85.09,73.83,170.18,110.75,255.27h-71.01Z"></path>
            <path class="cls-5" d="m646.02,1255.39c-35.07-45.64-75.12-91.27-120.14-136.91h-3.15c13.9,45.64,27.8,91.27,41.7,136.91h-63.07c-33.34-85.09-66.67-170.18-100.01-255.27h91.89c29.89,29.56,57.87,59.12,83.94,88.69h3.26c-6.79-29.56-13.57-59.12-20.36-88.69h85.92c12.06,85.09,24.13,170.18,36.19,255.27h-36.17Z"></path>
            <path class="cls-5" d="m711.29,1255.39c-8.64-85.09-17.28-170.18-25.92-255.27h125.9c28.65,0,50.45,1.52,65.21,4.55,14.76,3.04,25.58,8.26,32.42,15.68,3.39,3.83,6.03,7.92,7.92,12.31,1.89,4.38,3.13,10.4,3.7,18.04.58,7.65.31,17.54-.78,29.67-1.1,12.14-3.13,27.88-6.06,47.21-2.93,19.34-5.67,35.13-8.16,47.38-2.5,12.26-5.02,22.2-7.55,29.84-2.53,7.65-5.11,13.71-7.73,18.21-2.63,4.5-5.69,8.55-9.18,12.14-3.52,3.82-7.52,7.03-11.99,9.61-4.48,2.59-9.74,4.67-15.8,6.24-6.07,1.57-13.08,2.7-21.08,3.37-7.99.68-17.27,1.01-27.85,1.01h-93.06Zm92.68-56.31c6.01,0,10.31-.45,12.89-1.35,2.57-.9,4.55-2.47,5.94-4.72.71-1.57,1.44-3.42,2.2-5.56.75-2.14,1.41-5.56,1.99-10.29.57-4.72,1.15-11.07,1.76-19.05.59-7.98,1.25-18.49,1.95-31.53.7-13.03,1.19-23.66,1.45-31.87.26-8.2.33-14.67.21-19.39-.12-4.72-.49-8.2-1.12-10.45-.63-2.25-1.28-4.16-1.95-5.73-1.41-1.8-3.6-3.14-6.56-4.05-2.97-.89-8.03-1.35-15.17-1.35h-28.2c.28,48.45.56,96.89.84,145.34h23.77Z"></path>
            <path class="cls-5" d="m919.9,1255.39c15.9-85.09,31.81-170.18,47.71-255.27h96.07c-24.26,85.09-48.51,170.18-72.77,255.27h-71.01Z"></path>
            <path class="cls-5" d="m1021.77,1255.39c27.89-85.09,55.78-170.18,83.66-255.27h199.89c-9.57,17.98-19.14,35.97-28.7,53.95h-100.36c-6.33,14.95-12.66,29.9-18.99,44.85h93.88c-9.12,17.2-18.24,34.4-27.35,51.59-29.46,0-58.92,0-88.37,0-6.81,16.07-13.61,32.15-20.42,48.22h84.18c-10.04,18.88-20.07,37.77-30.11,56.65h-147.31Z"></path>
          </g>
          <path class="cls-9" d="m725.9,1616.03c-35.55-19.36-69.52-40.95-100.96-64.19l-5.9-4.36v-161.87h327.74v161.86l-5.9,4.36c-31.39,23.21-65.36,44.81-100.96,64.2l-57.01,30.25-57.01-30.25Z"></path>
          <g>
            <path class="cls-5" d="m651.19,1543.56c0-8.32.01-16.64.02-24.96,5.56-3.61,8.39-5.74,14.12-10.6,3.31-2.8,6.02-5.29,8.09-7.25,2.07-1.96,3.71-3.67,4.9-5.04,1.19-1.37,2.11-2.59,2.76-3.62.65-1.03,1.27-2.23,1.88-3.59.6-1.36,1.05-2.61,1.36-3.72.3-1.11.53-2.42.69-3.93.16-1.5.26-3.28.32-5.34.06-2.06.1-4.67.11-7.83.02-3.88-.09-6.8-.33-8.72-.24-1.93-.6-3.53-1.09-4.82-.29-.94-.84-1.67-1.62-2.19-.79-.52-2.17-.67-4.15-.45-3.26.36-5.28,1.64-6.07,3.73-.3,1.15-.58,2.9-.84,5.25-.26,2.35-.4,6.18-.42,11.5,0,.89,0,1.69-.01,2.41,0,.72.04,1.36.14,1.92-7.22-.26-14.39-.36-21.52-.29-.19-1.22-.29-2.56-.29-4.02,0-1.46,0-3.69,0-6.7,0-5.64.34-10.5,1.02-14.68.68-4.18,2.04-7.85,4.09-11.09,2.05-3.24,4.99-6.13,8.82-8.57,3.83-2.44,8.9-4.7,15.22-6.47,3.55-.99,6.67-1.64,9.34-1.94,2.67-.3,5-.22,6.98.23,1.98.45,3.67,1.31,5.06,2.56,1.39,1.24,2.6,2.94,3.58,5.06.8,1.74,1.54,3.71,2.24,5.86.7,2.15,1.3,4.68,1.8,7.58.5,2.9.9,6.31,1.2,10.21.3,3.91.45,8.55.45,13.92,0,6.19-.15,11.62-.46,16.24-.3,4.63-1.02,8.91-2.14,12.77-1.12,3.86-2.83,7.56-5.12,10.99-2.29,3.43-5.42,7-9.35,10.5-5.27,4.74-7.89,6.9-13.08,10.78.17.7.26,1.05.44,1.75,9.41,3.6,18.95,7.37,28.62,11.23,0,11.08,0,22.17,0,33.25-19.62-11.04-38.54-21.56-56.75-31.91Z"></path>
            <path class="cls-5" d="m749.01,1598.26c-4.17-2.38-7.74-4.54-10.71-6.53-2.97-1.99-5.45-4.49-7.46-7.37-2.01-2.88-3.58-6.39-4.71-10.54-1.13-4.15-2-9.5-2.6-16.04-.74-7.9-1.05-16.08-1.17-24.1-.17-11.52-.26-23.16-.26-34.72,0-11.43.09-22.97.26-34.4.12-7.77.42-15.79,1.19-23.64.62-6.3,1.5-11.3,2.64-14.99,1.15-3.69,2.73-6.56,4.76-8.59,2.03-2.03,4.52-3.44,7.48-4.16,2.96-.72,6.51-1.3,10.67-1.67,4.16-.37,7.74-.42,10.75-.18,3.01.24,5.51,1.34,7.5,3.32,1.99,1.98,3.59,5.09,4.78,9.32,1.2,4.23,2.11,10.16,2.72,17.75.76,9.51,1.06,19.12,1.2,28.7.2,13.95.27,27.94.27,41.88,0,13.97,0,28.06-.27,41.97-.18,9.27-.4,18.67-1.2,27.96-.62,7.21-1.53,12.58-2.73,16.09-1.2,3.51-2.8,5.67-4.8,6.49-2,.83-4.51.51-7.53-.88-3.02-1.39-6.62-3.3-10.79-5.68Zm.02-40.3c1.51.64,2.68.84,3.53.56.84-.28,1.49-2.06,1.93-5.36.45-3.3.74-8.67.87-16.1.19-10.55.2-21.12.21-31.65,0-10.81,0-21.66-.12-32.47-.08-7.65-.33-13.29-.72-16.89-.4-3.6-1.04-5.74-1.92-6.44-.88-.69-2.12-1.07-3.72-1.14-1.59-.07-2.81.21-3.65.8-.84.6-1.46,2.61-1.86,6.02-.4,3.41-.65,8.76-.74,16.06-.13,10.33-.15,20.68-.15,30.99,0,10.12,0,20.27.18,30.37.12,7.19.39,12.55.79,16.06.4,3.51,1.02,5.76,1.86,6.74.84.98,2.02,1.79,3.52,2.43Z"></path>
            <path class="cls-5" d="m907.68,1487.78c1.42.75,2.68,1.45,3.76,2.09,1.08.65,2.03,1.75,2.83,3.29.8,1.53,1.38,3.78,1.76,6.72.37,2.94.56,7.08.56,12.44,0,5.64-.32,10.49-.97,14.64-.64,4.15-1.98,7.94-4.01,11.45-2.04,3.52-4.97,6.93-8.82,10.22-4.87,4.16-10.33,7.45-15.78,10.62-6.29,3.66-11.68,5.69-15.67,6.09-4,.4-7.09-.76-9.22-3.52-2.13-2.76-3.56-7.02-4.27-12.7-.71-5.68-1.07-12.62-1.07-20.74,0-1.89.02-3.49.08-4.79.05-1.3.12-2.44.23-3.41,7.37-2.19,14.68-4.28,21.93-6.27-.1.75-.14,1.46-.14,2.12,0,.66,0,1.36,0,2.08.01,3.02.12,5.28.32,6.77.2,1.5.54,2.92,1.05,4.14.47,1.12,1.21,1.83,2.14,2.07.93.24,2.42-.04,4.46-.82,3.2-1.22,5.41-2.85,6.66-4.84,1.24-1.99,1.85-5.41,1.83-10.31-.02-3.81-.11-6.78-.26-8.93-.15-2.15-.52-3.68-1.11-4.6-.58-.92-1.45-1.42-2.61-1.48-1.16-.05-2.71.1-4.65.48-4.66.93-7.01,1.41-11.73,2.4-.03-8.8-.05-13.2-.09-21.99,4.71-.42,7.06-.6,11.72-.94,1.55-.11,2.84-.31,3.85-.59,1.01-.29,1.76-.94,2.24-1.96.48-1.02.81-2.57.99-4.66.18-2.09.26-4.94.25-8.56-.02-3.07-.12-5.49-.33-7.26-.2-1.77-.55-3.14-1.03-4.08-.49-.94-1.24-1.56-2.26-1.86-1.02-.29-2.3-.53-3.86-.71-3.88-.44-6.03.49-6.41,2.72-.19.94-.43,2.27-.71,4-.29,1.73-.42,4.22-.41,7.47,0,.6,0,1.26,0,1.99,0,.72.05,1.26.15,1.62-7.21.06-14.46.3-21.73.72-.1-1.07-.15-2.12-.15-3.13,0-1.01,0-2,0-2.93-.05-8.16.27-15.26,1.11-20.97.83-5.7,2.33-10.2,4.48-13.4,2.15-3.2,5.13-5.14,8.93-5.79,3.8-.65,8.67-.15,14.59,1.49,5.92,1.64,10.76,3.51,14.53,5.41,3.77,1.9,6.71,4.31,8.83,7.1,2.11,2.79,3.56,6.2,4.32,10.26.77,4.06,1.15,9.22,1.15,15.58,0,3.93-.12,7.17-.35,9.74-.23,2.57-.66,4.73-1.27,6.5-.61,1.77-1.39,3.26-2.33,4.48-.94,1.22-2.12,2.39-3.54,3.51,0,.42,0,.62,0,1.04Z"></path>
            <path class="cls-5" d="m791.38,1613.58c0-15.33,0-30.65,0-45.97,4.32-10.47,8.72-20.8,13.21-31,3.05-6.86,5.52-12.2,7.4-16.23,1.88-4.03,3.36-7.23,4.44-9.7,1.08-2.47,1.9-4.51,2.49-6.18.58-1.66,1.14-3.51,1.68-5.54.54-2.03.94-3.82,1.21-5.38.27-1.56.47-3.34.6-5.35.13-2,.22-4.35.26-7.05.04-2.7.06-6.1.06-10.22,0-5.06-.12-8.85-.34-11.37-.22-2.52-.56-4.64-1.01-6.37-.27-1.26-.76-2.27-1.48-3.04-.72-.77-1.97-1.13-3.76-1.04-2.96.14-4.8,1.72-5.51,4.75-.27,1.67-.51,4.26-.74,7.76-.22,3.5-.33,9.24-.33,17.2,0,1.33,0,2.53,0,3.6,0,1.08.04,2.02.14,2.84-6.64,1.23-13.28,2.64-19.93,4.22-.18-2.26-.27-4.76-.27-7.51,0-2.75-.03-6.99,0-12.63.05-9.07.18-18.26.94-27.33.63-7.55,1.88-13.75,3.77-18.49,1.88-4.74,4.57-8.07,8.07-9.97,3.5-1.9,8.11-2.6,13.84-2.11,3.22.28,6.04.81,8.46,1.54,2.42.73,4.52,1.75,6.3,3.03,1.79,1.28,3.31,2.87,4.56,4.73,1.25,1.87,2.34,4.13,3.21,6.73.72,2.14,1.39,4.47,2.01,6.95.62,2.48,1.16,5.31,1.6,8.48.45,3.17.8,6.84,1.07,11,.27,4.16.4,9.08.4,14.76,0,6.56-.13,12.34-.4,17.34-.26,5-.88,9.78-1.86,14.39-.97,4.61-2.45,9.38-4.45,14.41-1.99,5.02-4.72,10.88-8.2,17.77-3.98,7.88-7.88,15.91-11.69,24.06.16.8.24,1.2.4,2,8.48-3.64,16.9-7.1,25.27-10.42,0,11.86,0,23.71,0,35.57-16.89,9.24-34.19,18.82-51.42,29.77Z"></path>
          </g>
          <path class="cls-2" d="m382.19,1297.75h801.44v155.3c-131.57-45.7-266.39-68.86-400.72-68.86s-269.16,23.17-400.72,68.86v-155.3Z"></path>
          <g>
            <path class="cls-9" d="m506.41,1388.43c-1.06,1.68-2.29,3.14-3.7,4.39-1.41,1.25-3.16,2.41-5.25,3.51-2.09,1.1-4.53,2.1-7.34,3.02-2.81.92-6.08,1.83-9.81,2.75-7.57,1.87-13.29,2.75-17.17,2.52-3.88-.22-6.85-1.67-8.91-4.39-1.03-1.31-1.92-2.83-2.64-4.57-.72-1.73-1.32-4.17-1.78-7.34-.46-3.16-.8-7.36-1.01-12.6-.21-5.24-.31-12.03-.31-20.35,0-8.32.1-15.11.31-20.37.21-5.25.55-9.52,1.02-12.81.47-3.28,1.07-5.87,1.81-7.75.73-1.88,1.63-3.66,2.68-5.35,1.05-1.59,2.29-2.94,3.71-4.05,1.42-1.11,3.18-2.01,5.28-2.7,2.1-.69,4.6-1.16,7.49-1.43,2.89-.27,6.23-.4,10.01-.4,7.57,0,13.32.6,17.25,1.74,3.93,1.15,6.94,3.09,9.02,5.81,1.04,1.44,1.92,2.96,2.64,4.56.72,1.6,1.31,3.79,1.75,6.58.45,2.8.76,6.43.93,10.91.17,4.48.22,10.28.16,17.42-.06,7.14-.22,12.98-.47,17.55-.25,4.56-.62,8.29-1.12,11.19-.49,2.9-1.11,5.25-1.86,7.04-.74,1.8-1.65,3.49-2.7,5.09Zm-19.89-11.71c.21-.63.42-1.44.64-2.41.21-.97.38-2.4.49-4.29.11-1.88.21-4.43.28-7.62.07-3.19.12-7.38.15-12.56.03-5.35.03-9.64,0-12.86-.03-3.22-.1-5.79-.19-7.69-.09-1.91-.24-3.32-.45-4.24-.21-.92-.41-1.68-.62-2.26-.42-.83-1.04-1.42-1.88-1.76-.84-.34-2.25-.47-4.24-.38-1.99.1-3.44.36-4.33.8-.89.44-1.5,1.11-1.82,2-.32.63-.56,1.44-.72,2.41-.16.98-.33,2.46-.49,4.45-.16,1.99-.28,4.66-.34,8.02-.07,3.35-.11,7.8-.13,13.35-.02,5.37-.01,9.71.03,13,.04,3.3.13,5.9.28,7.81.15,1.91.3,3.33.45,4.27.15.94.38,1.69.69,2.24.31.82.9,1.32,1.79,1.49.88.18,2.31.07,4.29-.31,1.97-.38,3.38-.82,4.22-1.32.84-.5,1.46-1.21,1.88-2.14Z"></path>
            <path class="cls-9" d="m520.9,1391.29c.3-29.74.59-59.48.89-89.23,17.34-.06,34.69-.11,52.03-.16-.08,5.62-.16,11.23-.24,16.85-9.09.34-18.18.7-27.26,1.08-.07,5.61-.14,11.23-.21,16.84,8.92-.7,17.84-1.37,26.77-1.99-.08,5.41-.15,10.82-.23,16.23-8.93.92-17.84,1.9-26.75,2.93-.13,10.86-.27,21.71-.4,32.57-8.22,1.54-16.42,3.16-24.61,4.87Z"></path>
            <path class="cls-9" d="m627.62,1373.73c.28-18.92.56-37.84.84-56.75-6.26.17-12.52.35-18.77.55.08-5.24.16-10.48.23-15.72,20.76-.05,41.52-.09,62.29-.12-.06,4.75-.12,9.51-.18,14.26-6.26.12-12.52.26-18.79.4-.25,18.2-.51,36.4-.76,54.6-8.29.85-16.58,1.77-24.85,2.78Z"></path>
            <path class="cls-9" d="m719.61,1365.86c.07-8.8.15-17.59.22-26.39-5.18.15-10.35.33-15.52.52-.09,8.91-.18,17.82-.27,26.74-8.52.53-17.05,1.14-25.56,1.83.27-22.29.55-44.59.82-66.88,8.46-.01,16.93-.02,25.39-.03-.08,8.4-.17,16.79-.25,25.19,5.17-.13,10.33-.24,15.5-.34.07-8.29.14-16.57.21-24.86,8.46,0,16.93-.01,25.39-.02-.11,21.08-.22,42.15-.33,63.23-8.53.25-17.07.59-25.6,1.02Z"></path>
            <path class="cls-9" d="m755.7,1364.58c.08-20.99.16-41.97.24-62.96,17.61,0,35.22,0,52.83,0,.02,4.43.03,8.86.05,13.3-9.37-.04-18.75-.06-28.12-.06,0,3.67,0,7.34,0,11.01,9.23,0,18.46.02,27.69.09.01,4.24.03,8.48.04,12.71-9.25-.11-18.49-.15-27.74-.14,0,3.95,0,7.89,0,11.84,9.37-.02,18.74.05,28.1.19.02,4.65.03,9.31.05,13.96-17.71-.35-35.42-.33-53.13.06Z"></path>
            <path class="cls-9" d="m867.64,1367.01c-.08-7.94-.17-15.89-.25-23.83-7.43-14-14.83-27.67-22.19-41.12,0-.14,0-.28,0-.42,8.52,0,17.03.02,25.55.03,1.72,4.1,3.1,7.41,4.13,9.88,1.03,2.48,1.84,4.47,2.44,5.96.59,1.49,1.06,2.63,1.38,3.39.33.76.59,1.5.82,2.2.53.01,1.05.03,1.58.04.2-.7.46-1.42.76-2.17.31-.75.74-1.87,1.3-3.35.56-1.48,1.35-3.46,2.38-5.94,1.02-2.48,2.4-5.8,4.14-9.99,8.25.01,16.5.02,24.76.04,0,.15,0,.31,0,.46-6.74,14.45-13.49,28.45-20.28,42.13.1,8.24.21,16.49.31,24.73-8.94-.77-17.88-1.45-26.82-2.03Z"></path>
            <path class="cls-9" d="m921.41,1371.65c-.33-23.3-.66-46.61-.99-69.91,17.61.03,35.22.07,52.82.11.08,5.4.16,10.79.24,16.19-9.36-.31-18.72-.6-28.08-.87.06,4.26.13,8.52.19,12.79,9.21.47,18.41.97,27.61,1.52.08,5.16.15,10.31.23,15.47-9.2-.82-18.41-1.57-27.62-2.27.07,4.58.14,9.17.2,13.75,9.32.93,18.64,1.93,27.94,3.02.08,5.66.17,11.33.25,16.99-17.56-2.62-35.16-4.88-52.8-6.77Z"></path>
            <path class="cls-9" d="m1021.57,1386.39c-.76-6.63-1.52-13.23-2.28-19.81-3.98-.57-7.97-1.13-11.95-1.67-.55,6.23-1.09,12.43-1.64,18.6-8.28-1.45-16.57-2.81-24.88-4.09,3.88-25.19,7.76-51.02,11.65-77.53,13.88.04,27.75.08,41.62.13,4.31,29,8.61,58.78,12.87,89.39-8.45-1.76-16.92-3.44-25.39-5.03Zm-8.06-67.09c-.58-.02-1.16-.05-1.73-.07-1.19,9.83-2.37,19.57-3.55,29.24,3.25.33,6.51.67,9.76,1.01-1.49-10.15-2.98-20.21-4.47-30.18Z"></path>
            <path class="cls-9" d="m1092.84,1401.86c-.31-.87-.61-1.79-.87-2.77-.27-.98-.55-2.44-.87-4.4-.32-1.95-.75-4.64-1.28-8.06-.53-3.42-1.18-8.07-1.93-13.92-.33-2.31-.64-4.18-.96-5.61-.32-1.43-.69-2.55-1.11-3.35-.42-.8-.94-1.35-1.57-1.66-.63-.3-1.31-.51-2.04-.62-1.25-.18-2.5-.36-3.76-.55.08,12.5.15,25.01.23,37.51-8.16-1.92-16.33-3.75-24.51-5.5-.28-30.28-.55-60.57-.83-90.85,12.03.04,24.07.09,36.1.14,5.36.02,9.78.55,13.25,1.61,3.47,1.06,6.23,2.73,8.28,5.02,2.05,2.29,3.47,5.24,4.26,8.85.79,3.6,1.18,7.98,1.18,13.09,0,5.49-.21,9.77-.62,12.83-.42,3.07-1.07,5.43-1.95,7.07-.89,1.65-1.95,2.82-3.2,3.53-1.25.71-2.71,1.35-4.37,1.94,0,.27,0,.54,0,.82.63.54,1.28,1.13,1.96,1.77.68.64,1.27,1.64,1.8,3,.83,1.77,1.7,4.4,2.58,7.92.89,3.51,1.75,8.4,2.58,14.69.63,4.39,1.09,7.94,1.4,10.61.31,2.68.59,4.84.85,6.49.26,1.65.47,2.92.62,3.8.15.88.39,1.74.7,2.57v.7c-8.62-2.32-17.26-4.55-25.92-6.68Zm-7.6-58.15c2.3.24,3.92-.39,4.85-1.91.93-1.52,1.39-4.6,1.37-9.24-.02-3.94-.58-6.6-1.68-7.97-1.11-1.37-2.87-2.11-5.28-2.24-2.1-.11-4.19-.22-6.29-.32.04,6.99.08,13.99.13,20.98,2.3.23,4.6.47,6.9.71Z"></path>
          </g>
          <polygon class="cls-9" points="0 922.09 127.48 861.47 150.62 922.09 0 922.09"></polygon>
          <polygon class="cls-9" points="1565.82 922.09 1438.34 861.47 1415.2 922.09 1565.82 922.09"></polygon>
          <g>
            <polygon class="cls-2" points="74.37 980.62 219.2 988.12 74.37 995.62 74.37 980.62 74.37 980.62"></polygon>
            <polygon class="cls-2" points="81.77 1003.97 229.6 1011.47 81.77 1018.97 81.77 1003.97 81.77 1003.97"></polygon>
            <polygon class="cls-2" points="89.17 1027.33 244 1034.83 89.17 1042.33 89.17 1027.33 89.17 1027.33"></polygon>
            <polygon class="cls-2" points="103.48 1050.69 251.4 1058.19 103.48 1065.69 103.48 1050.69 103.48 1050.69"></polygon>
            <polygon class="cls-2" points="115.91 1074.04 258.8 1081.54 115.91 1089.04 115.91 1074.04 115.91 1074.04"></polygon>
            <polygon class="cls-2" points="123.2 1097.4 271.2 1104.9 123.2 1112.4 123.2 1097.4 123.2 1097.4"></polygon>
            <polygon class="cls-2" points="133.48 1120.76 283.59 1128.26 133.48 1135.76 133.48 1120.76 133.48 1120.76"></polygon>
            <polygon class="cls-2" points="143.34 1144.12 300.99 1151.62 143.34 1159.12 143.34 1144.12 143.34 1144.12"></polygon>
            <path class="cls-2" d="m238.51,1170.83c5.58,3.48,11.48,6.65,17.37,9.94l77.27-4.47-94.65-5.47Z"></path>
            <path class="cls-2" d="m273.17,1191.45c3.11,2.23,6.1,4.65,8.92,7.31l58.76-3.4-67.67-3.91Z"></path>
            <path class="cls-2" d="m292.51,1211.19c1.4,2.04,2.73,4.13,3.95,6.25l52.07-3.01-56.03-3.24Z"></path>
            <path class="cls-2" d="m305.72,1230.39c.8,2,1.53,4.02,2.2,6.06l51.31-2.97-53.51-3.09Z"></path>
            <path class="cls-2" d="m318.36,1249.33c.44,2.11.82,4.23,1.15,6.36l54.41-3.15-55.57-3.21Z"></path>
          </g>
          <g>
            <polygon class="cls-2" points="1491.45 980.62 1346.62 988.12 1491.45 995.62 1491.45 980.62 1491.45 980.62"></polygon>
            <polygon class="cls-2" points="1484.05 1003.97 1336.22 1011.47 1484.05 1018.97 1484.05 1003.97 1484.05 1003.97"></polygon>
            <polygon class="cls-2" points="1476.65 1027.33 1321.82 1034.83 1476.65 1042.33 1476.65 1027.33 1476.65 1027.33"></polygon>
            <polygon class="cls-2" points="1462.34 1050.69 1314.42 1058.19 1462.34 1065.69 1462.34 1050.69 1462.34 1050.69"></polygon>
            <polygon class="cls-2" points="1449.91 1074.04 1307.02 1081.54 1449.91 1089.04 1449.91 1074.04 1449.91 1074.04"></polygon>
            <polygon class="cls-2" points="1442.62 1097.4 1294.62 1104.9 1442.62 1112.4 1442.62 1097.4 1442.62 1097.4"></polygon>
            <polygon class="cls-2" points="1432.34 1120.76 1282.23 1128.26 1432.34 1135.76 1432.34 1120.76 1432.34 1120.76"></polygon>
            <polygon class="cls-2" points="1422.48 1144.12 1264.83 1151.62 1422.48 1159.12 1422.48 1144.12 1422.48 1144.12"></polygon>
            <path class="cls-2" d="m1327.31,1170.83c-5.58,3.48-11.48,6.65-17.37,9.94l-77.27-4.47,94.65-5.47Z"></path>
            <path class="cls-2" d="m1292.65,1191.45c-3.11,2.23-6.1,4.65-8.92,7.31l-58.76-3.4,67.67-3.91Z"></path>
            <path class="cls-2" d="m1273.31,1211.19c-1.4,2.04-2.73,4.13-3.95,6.25l-52.07-3.01,56.03-3.24Z"></path>
            <path class="cls-2" d="m1260.1,1230.39c-.8,2-1.53,4.02-2.2,6.06l-51.31-2.97,53.51-3.09Z"></path>
            <path class="cls-2" d="m1247.46,1249.33c-.44,2.11-.82,4.23-1.15,6.36l-54.41-3.15,55.57-3.21Z"></path>
          </g>
          <path class="cls-9" d="m431.02,922.09l57.25-118.13,14.65,5.88c5.09,2.04,10.53,3.08,16.17,3.08,22.11,0,40.11-16.36,40.11-36.47v-14.55h447.44v14.55c0,20.11,17.99,36.47,40.11,36.47,5.63,0,11.07-1.04,16.17-3.08l14.65-5.88,57.25,118.13H431.02Z"></path>
          <g>
            <polygon class="cls-9" points="1188.32 1413.51 1157.56 1415.68 1144.05 1443.41 1161.32 1468.97 1192.08 1466.8 1205.59 1439.07 1188.32 1413.51"></polygon>
            <polygon class="cls-2" points="1156.94 1442.5 1164.79 1426.39 1182.67 1425.13 1192.7 1439.98 1184.85 1456.1 1166.97 1457.36 1156.94 1442.5"></polygon>
            <polygon class="cls-9" points="1166.15 1441.85 1169.96 1434.04 1178.62 1433.43 1183.49 1440.63 1179.68 1448.44 1171.02 1449.05 1166.15 1441.85"></polygon>
          </g>
          <g>
            <polygon class="cls-9" points="377.5 1413.51 408.26 1415.68 421.77 1443.41 404.5 1468.97 373.74 1466.8 360.23 1439.07 377.5 1413.51"></polygon>
            <polygon class="cls-2" points="408.88 1442.5 401.03 1426.39 383.15 1425.13 373.12 1439.98 380.97 1456.1 398.85 1457.36 408.88 1442.5"></polygon>
            <polygon class="cls-9" points="399.67 1441.85 395.86 1434.04 387.2 1433.43 382.33 1440.63 386.14 1448.44 394.8 1449.05 399.67 1441.85"></polygon>
          </g>
          <path class="cls-6" d="m300.16,652.87v84.54h-13.52c-4.58-31.6-7.22-60.16-8.69-84.54-.49-8.29-.86-16.09-1.11-23.37-.06-1.79-.12-3.56-.17-5.31h6.63l1.32,28.68h15.54Z"></path>
          <path class="cls-9" d="m431.62,922.54l57.44-118.53,12.98,5.21c5.36,2.15,11.09,3.24,17.04,3.24,22.67,0,41.11-16.16,41.11-36.02v-15h445.44v15c0,19.86,18.44,36.02,41.11,36.02,5.95,0,11.68-1.09,17.04-3.24l12.98-5.21,57.44,118.53H431.62Z"></path>
          <path class="cls-2" d="m1069.36,823.14c-6.92,2.78-14.58,4.32-22.62,4.32-30.99,0-56.11-22.84-56.11-51.02h-415.44c0,28.18-25.12,51.02-56.11,51.02-8.05,0-15.7-1.54-22.62-4.32l-40.9,84.4h654.7l-40.9-84.4Z"></path>
          <g>
            <path class="cls-9" d="m587.89,881.03v-77.21h23.53v77.21h-23.53Z"></path>
            <path class="cls-9" d="m669.44,881.03l-26.16-41.41h-.88v41.41h-20.9v-77.21h22.5l15.49,26.83h.88v-26.83h21.04v77.21h-11.98Z"></path>
            <path class="cls-9" d="m691.06,881.03v-77.21h30.83c7.02,0,12.37.46,16.08,1.38,3.7.92,6.53,2.5,8.48,4.74.97,1.16,1.78,2.4,2.41,3.72.63,1.33,1.17,3.15,1.61,5.46.44,2.31.75,5.3.95,8.98.2,3.67.29,8.43.29,14.28s-.1,10.63-.29,14.33c-.2,3.71-.51,6.72-.95,9.03-.44,2.31-.97,4.15-1.61,5.51-.63,1.36-1.44,2.58-2.41,3.67-.98,1.16-2.14,2.13-3.51,2.91-1.37.78-3.02,1.41-4.97,1.89-1.95.48-4.24.82-6.87,1.02s-5.7.31-9.21.31h-30.83Zm30.25-17.03c1.85,0,3.16-.14,3.95-.41.78-.27,1.36-.75,1.75-1.43.19-.47.39-1.04.58-1.68.2-.65.34-1.68.44-3.11.1-1.43.17-3.35.22-5.76.05-2.41.07-5.59.07-9.54s-.03-7.16-.07-9.64c-.05-2.48-.12-4.44-.22-5.87-.1-1.43-.24-2.48-.44-3.16-.2-.68-.39-1.26-.58-1.73-.39-.54-.97-.95-1.75-1.22-.78-.27-2.1-.41-3.95-.41h-7.31v43.96h7.31Z"></path>
            <path class="cls-9" d="m760.19,881.03v-77.21h23.53v77.21h-23.53Z"></path>
            <path class="cls-9" d="m793.94,881.03v-77.21h48.96v16.32h-26.01v13.57h25.57v15.61h-25.57v14.59h25.87v17.14h-48.81Z"></path>
            <path class="cls-9" d="m852.1,881.03v-77.21h30.83c7.01,0,12.37.46,16.08,1.38,3.7.92,6.53,2.5,8.48,4.74.97,1.16,1.78,2.4,2.41,3.72.63,1.33,1.17,3.15,1.61,5.46.44,2.31.75,5.3.95,8.98.19,3.67.29,8.43.29,14.28s-.1,10.63-.29,14.33c-.2,3.71-.51,6.72-.95,9.03-.44,2.31-.98,4.15-1.61,5.51-.63,1.36-1.44,2.58-2.41,3.67-.97,1.16-2.14,2.13-3.51,2.91-1.37.78-3.02,1.41-4.97,1.89-1.95.48-4.24.82-6.87,1.02-2.63.2-5.7.31-9.21.31h-30.83Zm30.25-17.03c1.85,0,3.17-.14,3.95-.41.78-.27,1.36-.75,1.75-1.43.19-.47.39-1.04.58-1.68.19-.65.34-1.68.44-3.11.1-1.43.17-3.35.22-5.76.05-2.41.07-5.59.07-9.54s-.02-7.16-.07-9.64c-.05-2.48-.12-4.44-.22-5.87-.1-1.43-.24-2.48-.44-3.16-.2-.68-.39-1.26-.58-1.73-.39-.54-.98-.95-1.75-1.22-.78-.27-2.1-.41-3.95-.41h-7.31v43.96h7.31Z"></path>
            <path class="cls-9" d="m920.93,881.03v-77.21h32.88c4.97,0,9.08.39,12.35,1.17,3.26.78,5.89,2.01,7.89,3.67,2,1.67,3.41,3.81,4.24,6.43.83,2.62,1.24,5.8,1.24,9.54,0,2.79-.12,5.07-.37,6.83-.24,1.77-.68,3.23-1.31,4.39-.63,1.16-1.44,2.11-2.41,2.86-.97.75-2.19,1.46-3.65,2.14v.71c1.46.61,2.75,1.19,3.87,1.73,1.12.54,2.09,1.41,2.92,2.6.83,1.19,1.44,2.89,1.83,5.1.39,2.21.58,5.29.58,9.23,0,3.74-.39,6.92-1.17,9.54-.78,2.62-2.12,4.76-4.02,6.43-1.9,1.67-4.46,2.89-7.67,3.67-3.21.78-7.31,1.17-12.28,1.17h-34.93Zm29.67-45.49c2.24,0,3.77-.61,4.6-1.84.83-1.22,1.24-3.57,1.24-7.04,0-3.06-.51-5.08-1.54-6.07-1.02-.99-2.66-1.48-4.9-1.48h-6.14v16.42h6.72Zm.58,29.89c2.24,0,3.87-.47,4.9-1.43,1.02-.95,1.54-2.92,1.54-5.92,0-3.54-.44-6.05-1.32-7.55-.88-1.5-2.39-2.24-4.53-2.24h-7.89v17.14h7.31Z"></path>
          </g>
          <path class="cls-9" d="m1115.09,668.35c-.81-3.88-1.7-7.81-2.66-11.81-16.45-67.99-36.66-133.67-55.17-181.37-24.58-63.68-36.91-71.85-41.79-75.08-.97-.64-2.08-1.34-3.36-2.07-2.27-4.47-5.66-9.69-10.38-13.65-3.17-8.12-8.12-16.22-15.81-20.76-6.59-3.89-18.07-7.12-29.86-9.19l1.87-2.81-27.57.29s-.07,0-.11,0c-2.57,0-4.97.11-7.21.31,0,0-.01,0-.02,0-.63.06-1.24.12-1.84.19-.04,0-.09.01-.13.02-.56.07-1.12.14-1.66.23-.08.01-.17.03-.25.04-.5.08-.99.16-1.47.25-.12.02-.24.05-.36.07-.44.09-.87.18-1.29.27-.16.04-.31.08-.47.11-.38.09-.75.18-1.12.29-.19.05-.37.11-.56.16-.32.09-.65.19-.96.29-.22.07-.42.15-.63.22-.28.1-.56.19-.82.29-.23.09-.46.18-.69.28-.24.1-.48.19-.71.29-.25.11-.49.22-.73.34-.2.1-.41.19-.6.29-.26.13-.51.27-.75.4-.17.09-.35.18-.51.28-.26.15-.51.31-.77.47-.14.09-.29.18-.44.27-.27.18-.54.37-.8.56-.11.08-.23.16-.34.24-.37.28-.73.56-1.08.86-1.47,1.24-2.88,2.63-4.24,4.11-4.18,1.11-7.86,3.17-10.99,5.73-20.36-2.07-43.76-3.71-70.64-4.72-.01-.08-.02-.17-.03-.25l-.61-5.98-1.27-.02c-3.33-6.85-10.27-11.58-18.3-11.59l-34.73-.03c-9.42,0-17.35,6.5-19.71,15.3l-.25.06-.23,2.19c-.04.27-.06.54-.09.81-20.65,1.03-40.11,2.44-58.3,4.23-3.18-2.65-6.92-4.78-11.19-5.93-1.02-1.12-2.08-2.18-3.16-3.17-.36-.33-.72-.65-1.08-.95-.35-.3-.71-.58-1.08-.86-.1-.08-.21-.15-.32-.23-.27-.2-.54-.39-.82-.58-.14-.09-.29-.18-.43-.27-.26-.16-.51-.33-.78-.48-.16-.09-.33-.18-.49-.27-.26-.14-.51-.28-.78-.42-.18-.09-.38-.18-.56-.27-.26-.12-.51-.25-.77-.36-.21-.09-.43-.18-.65-.27-.25-.1-.5-.21-.75-.3-.24-.09-.5-.18-.75-.27-.24-.08-.47-.17-.72-.25-.28-.09-.57-.18-.86-.26-.22-.07-.44-.13-.67-.2-.33-.09-.66-.17-1-.26-.2-.05-.39-.1-.6-.15-.38-.09-.77-.17-1.16-.25-.17-.03-.33-.07-.5-.1-.44-.08-.88-.16-1.33-.23-.13-.02-.26-.04-.39-.06-.5-.08-1.01-.15-1.52-.21-.09-.01-.17-.02-.26-.03-.56-.07-1.14-.13-1.73-.18-.04,0-.08,0-.12-.01-2.28-.21-4.72-.32-7.35-.32,0,0-.02,0-.03,0l-27.46-.34,1.86,2.82c-11.8,2.05-23.28,5.26-29.87,9.13-7.7,4.53-12.66,12.62-15.85,20.73-3.19,2.66-5.77,5.89-7.81,9.09-4.8,2.04-9.11,4.24-12.69,6.6-4.49,2.96-15.28,10.08-36.18,60.62-19.62,47.26-41.92,117.43-59.88,190-.03.12-.06.24-.09.36-.43,1.76-.87,3.52-1.3,5.28-6.51,26.69-9.52,50.82-9.02,71.95.1,4.16.32,8.22.69,12.14.27,2.86.62,5.66,1.03,8.4.13.88.29,1.75.44,2.62.08.48.15.97.24,1.44,3.17,17.38,9.36,32.12,18.48,43.93,15.14,19.6,38.23,30.41,65.02,30.46.06,0,.11,0,.17,0h0c2.97,0,6.02-.13,9.05-.4,23.55-2.04,47.32-24.39,74.82-70.36.65-1.08,1.29-2.16,1.93-3.25,6.89-11.72,13.5-24.06,19.69-36.26l.13.09,7.8-16.09c.06-.13.13-.26.19-.39.41-.85.82-1.69,1.22-2.53.1-.22.21-.43.31-.65.42-.88.84-1.75,1.26-2.63.08-.17.16-.33.24-.5.44-.92.88-1.84,1.31-2.76.05-.1.1-.2.14-.3.46-.97.92-1.94,1.37-2.9.02-.04.03-.07.05-.11,5.78-12.28,10.94-23.72,15.31-33.4.05-.12.11-.24.16-.35,1.07-2.37,2.11-4.68,3.11-6.88,9.95,7.32,22.17,11.66,35.38,11.67h.05c23.21,0,43.41-13.34,53.55-32.85,7.83-.19,15.94-.34,24.23-.43,9.29.11,18.37.29,27.08.53,10.12,19.52,30.3,32.87,53.52,32.9h.06c12.99,0,25.03-4.19,34.9-11.29.95,2.12,1.95,4.33,2.96,6.59,3.97,8.84,8.61,19.17,13.77,30.27.11.23.21.46.32.69.31.68.63,1.36.95,2.04.16.35.33.7.49,1.05.29.62.58,1.23.87,1.86.19.41.39.82.58,1.23.28.6.56,1.2.85,1.8.2.43.4.85.61,1.28.29.61.58,1.21.87,1.82.04.08.07.15.11.23l8.44,17.67.14-.12c7.13,14.24,14.84,28.73,22.91,42.28,11.14,18.69,21.67,33.49,31.83,44.61.21.23.42.45.63.67.57.62,1.14,1.24,1.71,1.83,13.98,14.61,27.29,22.21,40.53,23.38,3.1.27,6.22.41,9.26.41h0c19.27,0,36.63-5.58,50.5-15.99.6-.45,1.2-.91,1.79-1.39,1.18-.94,2.33-1.92,3.46-2.93,3.38-3.04,6.5-6.41,9.34-10.08,11.23-14.51,18.04-33.46,20.25-56.33.57-5.96.83-12.2.78-18.7-.14-16.26-2.24-34.18-6.29-53.56Z"></path>
          <rect class="cls-9" x="756.34" y="52.44" width="53.14" height="331.5"></rect>
          <g>
            <g>
              <g>
                <path class="cls-1" d="m581.07,408.2s2.68-25.19,13.8-31.73c11.13-6.54,55.11-14.14,64.63-6.04,9.52,8.1,17.68,27.01,17.68,27.01l-96.11,10.77Z"></path>
                <path class="cls-7" d="m656.96,399.7l20.22-2.27s-8.16-18.91-17.68-27.01c-2.81-2.38-8.61-3.4-15.67-3.49,6.78,10.26,10.78,22.43,13.13,32.76Z"></path>
              </g>
              <path class="cls-3" d="m571.83,410.94s3.78-12.19,11.01-16.43c15.31-8.99,72.42-17,83.14-17.3,9.8-.27,14.91,11.13,14.91,11.13"></path>
              <path class="cls-9" d="m571.83,410.94s3.78-12.19,11.01-16.43c15.31-8.99,72.42-17,83.14-17.3,9.8-.27,14.91,11.13,14.91,11.13"></path>
            </g>
            <g>
              <g>
                <path class="cls-1" d="m992.05,408.59s-2.63-25.19-13.74-31.75c-11.11-6.56-55.08-14.24-64.61-6.16-9.54,8.08-17.73,26.97-17.73,26.97l96.08,10.94Z"></path>
                <path class="cls-7" d="m916.19,399.95l-20.22-2.3s8.19-18.89,17.73-26.97c2.81-2.38,8.61-3.38,15.68-3.46-6.8,10.25-10.82,22.41-13.19,32.73Z"></path>
              </g>
              <path class="cls-3" d="m1001.3,411.35s-3.76-12.2-10.98-16.46c-15.3-9.02-72.39-17.14-83.11-17.46-9.8-.29-14.93,11.1-14.93,11.1"></path>
              <path class="cls-9" d="m1001.3,411.35s-3.76-12.2-10.98-16.46c-15.3-9.02-72.39-17.14-83.11-17.46-9.8-.29-14.93,11.1-14.93,11.1"></path>
            </g>
            <path class="cls-7" d="m810.95,419.03c0,2.99-2.4,5.41-5.35,5.41l-45.39-.04c-2.95,0-5.34-2.42-5.33-5.42l5.39-52.09c0-2.99,2.4-5.41,5.35-5.41l34.71.03c2.95,0,5.34,2.43,5.34,5.42l5.29,52.1Z"></path>
            <path class="cls-9" d="m783.24,372.77c-7.1.19-15.42-.47-23.74,1.36l-4.64,44.85c0,2.99,2.39,5.42,5.33,5.42l45.39.04c2.95,0,5.34-2.42,5.35-5.41l-4.68-46.1c-7.32-.1-16.46-.07-23.02-.16Z"></path>
            <path class="cls-6" d="m1097.77,660.19c-28.37-117.3-70.1-233.73-90.56-247.28-20.46-13.55-83.95-32.56-226.36-34.5-131.74,3.49-201.18,20.56-221.66,34.08-20.48,13.51-62.43,129.85-91.02,247.11-28.59,117.26,18.55,156.09,70.18,151.63,51.63-4.46,113.72-169.48,126.57-191.14,4.9-8.25,100.83-9.61,116.97-9.78,15.8.19,114.31,1.71,119.21,10.01,12.81,21.69,74.6,186.82,126.22,191.38,51.62,4.56,98.83-34.19,70.45-151.5Z"></path>
            <g>
              <path class="cls-3" d="m702.6,490.3c-.03,39.6-31.75,71.69-70.83,71.65-39.08-.03-70.73-32.18-70.7-71.79.04-39.61,31.75-71.69,70.83-71.66,39.08.04,70.73,32.18,70.7,71.79Z"></path>
              <path class="cls-9" d="m702.6,490.3c-.03,39.6-31.75,71.69-70.83,71.65-39.08-.03-70.73-32.18-70.7-71.79.04-39.61,31.75-71.69,70.83-71.66,39.08.04,70.73,32.18,70.7,71.79Z"></path>
              <path class="cls-2" d="m693.53,490.29c-.03,34.53-27.68,62.5-61.75,62.47-34.07-.03-61.67-28.06-61.63-62.59.03-34.54,27.68-62.51,61.75-62.47,34.07.03,61.66,28.05,61.63,62.59Z"></path>
              <path class="cls-8" d="m684.92,458.37c2.97,7.34,4.62,15.37,4.61,23.8-.03,34.53-27.68,62.5-61.75,62.46-22.57-.02-42.29-12.33-53.02-30.67,9.22,22.74,31.26,38.77,57.02,38.8,34.07.03,61.72-27.95,61.75-62.47.01-11.66-3.14-22.57-8.61-31.92Z"></path>
            </g>
            <path class="cls-2" d="m547.83,426.5c-22.22,36.81-55.65,134.62-79.66,233.1-28.59,117.26,18.55,156.09,70.18,151.63,51.63-4.46,113.72-169.48,126.57-191.14-130.95-38.47-130.92-135.31-117.08-193.58Z"></path>
            <path class="cls-2" d="m1027.31,811.68c-45.31-4-98.45-131.7-119.42-177.53-2.85-6.21-5.1-10.91-6.66-13.6h.01c22.5-7.28,41.1-16.51,56.39-27.13.77-.54,1.54-1.08,2.3-1.63,5.02-3.62,9.67-7.39,13.98-11.3.82-.75,1.63-1.5,2.43-2.26.8-.76,1.59-1.53,2.36-2.3,1.16-1.15,2.29-2.31,3.4-3.49.56-.59,1.11-1.19,1.66-1.79,1.25-1.37,2.46-2.76,3.63-4.15.52-.63,1.04-1.25,1.55-1.88,1.46-1.8,2.86-3.62,4.21-5.46.6-.82,1.2-1.65,1.78-2.49,29.9-42.84,29.63-94.75,19.82-135.54,6.06,8.6,13.17,22.69,20.82,40.78,20.11,47.55,43.92,122.71,62.2,198.27,28.37,117.31-18.84,156.07-70.46,151.5Z"></path>
            <path class="cls-1" d="m630.45,693.85c16.7-34.45,29.41-65.24,34.47-73.78-46.85-13.76-76.93-34.99-95.61-59.26l-.76.53s12.84,97.43,61.9,132.5Z"></path>
            <path class="cls-1" d="m901.23,620.55c4.92,8.48,16.68,36.93,32.17,69.38,41.12-34.94,54.61-114.12,56.5-126.52-18.56,23.4-46.91,43.64-88.67,57.14Z"></path>
            <g>
              <g>
                <path class="cls-3" d="m797.4,459.62l-32.93-.03c-5.89,0-10.68,4.61-10.69,10.29v6.92c-.01,5.68,4.78,10.3,10.67,10.3l32.93.03c5.89,0,10.69-4.61,10.69-10.29v-6.92c.01-5.68-4.78-10.3-10.67-10.31Z"></path>
                <path class="cls-3" d="m797.36,501.12l-32.93-.03c-5.89,0-10.69,4.61-10.69,10.29v6.91c-.01,5.68,4.78,10.31,10.66,10.31l32.93.03c5.89,0,10.69-4.61,10.69-10.29v-6.92c.01-5.68-4.78-10.3-10.67-10.31Z"></path>
              </g>
              <g>
                <path class="cls-9" d="m797.4,459.62l-32.93-.03c-5.89,0-10.68,4.61-10.69,10.29v6.92c-.01,5.68,4.78,10.3,10.67,10.3l32.93.03c5.89,0,10.69-4.61,10.69-10.29v-6.92c.01-5.68-4.78-10.3-10.67-10.31Z"></path>
                <path class="cls-9" d="m797.36,501.12l-32.93-.03c-5.89,0-10.69,4.61-10.69,10.29v6.91c-.01,5.68,4.78,10.31,10.66,10.31l32.93.03c5.89,0,10.69-4.61,10.69-10.29v-6.92c.01-5.68-4.78-10.3-10.67-10.31Z"></path>
              </g>
              <path class="cls-8" d="m802.72,476.84c0,2.7-2.4,4.88-5.34,4.88l-32.93-.03c-2.95,0-5.34-2.19-5.33-4.89v-6.92c0-2.7,2.4-4.88,5.35-4.88l32.93.03c2.95,0,5.34,2.19,5.34,4.89v6.92Z"></path>
              <path class="cls-8" d="m802.68,518.34c0,2.7-2.4,4.88-5.34,4.88l-32.93-.03c-2.95,0-5.34-2.19-5.33-4.89v-6.92c0-2.7,2.4-4.88,5.35-4.88l32.93.03c2.95,0,5.34,2.19,5.34,4.89v6.92Z"></path>
              <path class="cls-2" d="m797.38,476.99l-32.93-.03c-2.95,0-5.34-2.19-5.34-4.89v4.73c0,2.7,2.38,4.89,5.33,4.89l32.93.03c2.95,0,5.34-2.18,5.34-4.88v-4.74c0,2.7-2.39,4.88-5.34,4.88Z"></path>
              <path class="cls-2" d="m797.34,518.49l-32.93-.03c-2.95,0-5.34-2.19-5.34-4.89v4.74c0,2.69,2.38,4.89,5.33,4.89l32.93.03c2.95,0,5.34-2.18,5.34-4.88v-4.73c0,2.7-2.39,4.88-5.34,4.88Z"></path>
            </g>
            <g>
              <g>
                <path class="cls-3" d="m1002.57,491.51c-.02,16.11-12.92,29.16-28.81,29.14-15.89-.02-28.77-13.09-28.75-29.2.02-16.11,12.91-29.16,28.8-29.14,15.89.01,28.77,13.08,28.76,29.2Z"></path>
                <path class="cls-9" d="m1002.57,491.51c-.02,16.11-12.92,29.16-28.81,29.14-15.89-.02-28.77-13.09-28.75-29.2.02-16.11,12.91-29.16,28.8-29.14,15.89.01,28.77,13.08,28.76,29.2Z"></path>
                <path class="cls-2" d="m995.39,491.5c-.01,12.09-9.69,21.88-21.62,21.87-11.93,0-21.59-9.83-21.58-21.91.01-12.09,9.69-21.88,21.62-21.87,11.93.01,21.59,9.82,21.58,21.91Z"></path>
                <path class="cls-8" d="m990.86,478.1c.91,2.43,1.44,5.05,1.43,7.8-.01,12.09-9.69,21.88-21.63,21.87-6.94,0-13.1-3.34-17.05-8.51,3.1,8.23,10.94,14.1,20.15,14.11,11.93.01,21.61-9.78,21.62-21.87,0-5.05-1.7-9.7-4.53-13.41Z"></path>
              </g>
              <path class="cls-9" d="m968.84,502.29c-.22-.03-.43-.11-.63-.22-.55-.33-.89-.93-.89-1.57v-16.59c.01-.09.02-.18.03-.27.08-.54.4-1.02.88-1.3.56-.33,1.24-.32,1.79,0l14.17,8.31c.55.33.89.93.89,1.57,0,.09,0,.18-.02.27-.08.54-.4,1.02-.88,1.3l-14.19,8.28c-.36.21-.77.28-1.16.22Zm2.07-15.24v10.3s8.8-5.14,8.8-5.14l-8.8-5.16Z"></path>
            </g>
            <g>
              <g>
                <path class="cls-3" d="m953.7,445.01c-.02,16.11-12.91,29.16-28.8,29.15-15.9-.02-28.77-13.09-28.76-29.2.02-16.11,12.91-29.16,28.81-29.15,15.89.02,28.76,13.09,28.75,29.2Z"></path>
                <path class="cls-9" d="m953.7,445.01c-.02,16.11-12.91,29.16-28.8,29.15-15.9-.02-28.77-13.09-28.76-29.2.02-16.11,12.91-29.16,28.81-29.15,15.89.02,28.76,13.09,28.75,29.2Z"></path>
                <path class="cls-2" d="m946.52,445.01c-.01,12.09-9.69,21.88-21.62,21.87-11.93-.01-21.59-9.82-21.58-21.91.01-12.09,9.69-21.89,21.62-21.88,11.93.01,21.59,9.83,21.58,21.92Z"></path>
                <path class="cls-8" d="m941.99,431.6c.91,2.43,1.43,5.05,1.43,7.8-.01,12.09-9.69,21.88-21.62,21.87-6.94,0-13.1-3.35-17.05-8.52,3.1,8.24,10.94,14.1,20.15,14.11,11.93.01,21.61-9.78,21.62-21.87,0-5.05-1.7-9.69-4.53-13.4Z"></path>
              </g>
              <path class="cls-9" d="m924.95,455.33c-.86-.13-1.52-.89-1.52-1.8l.02-17.87c0-1,.8-1.82,1.79-1.82.98,0,1.79.82,1.79,1.82l-.02,17.87c0,1-.8,1.82-1.79,1.82-.09,0-.18,0-.27-.02Z"></path>
              <path class="cls-9" d="m916.14,446.39c-.86-.13-1.52-.89-1.52-1.8,0-1,.8-1.82,1.79-1.82l17.64.02c.97,0,1.79.81,1.79,1.82,0,1-.8,1.82-1.79,1.82l-17.64-.02c-.09,0-.18,0-.27-.02Z"></path>
            </g>
            <g>
              <g>
                <path class="cls-3" d="m904.76,491.43c-.02,16.11-12.92,29.16-28.81,29.14-15.9-.01-28.77-13.09-28.75-29.2.01-16.11,12.91-29.16,28.81-29.14,15.89.02,28.77,13.09,28.75,29.2Z"></path>
                <path class="cls-9" d="m904.76,491.43c-.02,16.11-12.92,29.16-28.81,29.14-15.9-.01-28.77-13.09-28.75-29.2.01-16.11,12.91-29.16,28.81-29.14,15.89.02,28.77,13.09,28.75,29.2Z"></path>
                <path class="cls-2" d="m897.58,491.42c-.01,12.09-9.69,21.89-21.62,21.87-11.93-.01-21.59-9.82-21.58-21.92.01-12.09,9.69-21.88,21.62-21.87,11.93.01,21.59,9.82,21.58,21.91Z"></path>
                <path class="cls-8" d="m893.05,478.01c.91,2.43,1.44,5.05,1.43,7.8-.01,12.09-9.69,21.88-21.62,21.87-6.94,0-13.1-3.34-17.05-8.51,3.1,8.24,10.94,14.1,20.15,14.11,11.93.01,21.61-9.78,21.62-21.87,0-5.05-1.7-9.69-4.53-13.41Z"></path>
              </g>
              <path class="cls-9" d="m874.7,501.22c-2.08-.32-3.99-1.3-5.5-2.83-1.87-1.9-2.9-4.42-2.89-7.1,0-2.68,1.03-5.2,2.91-7.09,1.87-1.89,4.36-2.93,7-2.93,5.44,0,9.9,4.51,9.89,10.04,0,2.68-1.03,5.2-2.91,7.1-1.87,1.89-4.36,2.93-7,2.93-.51,0-1.01-.04-1.5-.11Zm2.46-16.25c-.31-.05-.62-.07-.95-.07-1.69,0-3.27.66-4.47,1.87-1.19,1.21-1.85,2.81-1.85,4.52,0,1.71.65,3.32,1.85,4.53,1.19,1.21,2.77,1.88,4.47,1.88,1.69,0,3.27-.66,4.47-1.87,1.2-1.21,1.85-2.82,1.86-4.53h0c0-3.2-2.33-5.87-5.37-6.33Z"></path>
            </g>
            <g>
              <g>
                <path class="cls-3" d="m953.63,537.92c-.01,16.11-12.91,29.16-28.8,29.15-15.89-.02-28.77-13.1-28.75-29.2.01-16.11,12.91-29.16,28.81-29.14,15.89.01,28.76,13.09,28.75,29.2Z"></path>
                <path class="cls-9" d="m953.63,537.92c-.01,16.11-12.91,29.16-28.8,29.15-15.89-.02-28.77-13.1-28.75-29.2.01-16.11,12.91-29.16,28.81-29.14,15.89.01,28.76,13.09,28.75,29.2Z"></path>
                <path class="cls-2" d="m946.45,537.91c-.01,12.09-9.69,21.89-21.62,21.87-11.93,0-21.59-9.83-21.58-21.91.01-12.09,9.69-21.88,21.62-21.87,11.93,0,21.59,9.83,21.58,21.92Z"></path>
                <path class="cls-8" d="m941.92,524.51c.91,2.43,1.43,5.05,1.43,7.8-.01,12.09-9.69,21.88-21.62,21.87-6.94,0-13.1-3.35-17.05-8.51,3.1,8.24,10.94,14.1,20.15,14.11,11.93.02,21.61-9.78,21.62-21.87,0-5.06-1.7-9.7-4.53-13.4Z"></path>
              </g>
              <path class="cls-9" d="m916.06,544.75c-.38-.06-.73-.24-1-.51-.34-.34-.52-.8-.52-1.29v-11.1c.01-1,.81-1.82,1.81-1.82l17.03.02c1,0,1.79.82,1.79,1.82v11.09c-.01,1-.81,1.82-1.81,1.81h-17.03c-.09-.01-.18-.02-.27-.03Zm2.07-11.07v7.46s13.44.01,13.44.01v-7.46s-13.44-.01-13.44-.01Z"></path>
            </g>
            <path class="cls-9" d="m596.58,500.56c-1.03,0-2.01-.41-2.74-1.14-.76-.76-1.17-1.77-1.17-2.85v-12.75c.01-2.2,1.77-3.99,3.93-3.99l18.49.02,10.79,10.31-10.81,10.42-18.47-.02Z"></path>
            <path class="cls-9" d="m648.8,500.62l-10.79-10.44,10.81-10.29,18.48.02c2.16,0,3.91,1.79,3.91,4v12.75c-.01,2.2-1.77,3.99-3.93,3.99h0l-18.48-.02Z"></path>
            <path class="cls-9" d="m621.75,473.15l.02-18.75c0-2.2,1.76-3.99,3.91-3.99h12.58c1.04.01,2.02.43,2.76,1.17.74.76,1.16,1.76,1.15,2.83l-.02,18.75-10.15,10.91-10.26-10.93Z"></path>
            <path class="cls-9" d="m625.61,530.05c-1.04,0-2.02-.41-2.76-1.16-.74-.76-1.15-1.76-1.15-2.84l.02-18.75,10.28-10.92,10.13,10.93-.02,18.76c0,2.2-1.76,3.99-3.92,3.99h-12.58Z"></path>
          </g>
          <rect class="cls-1" x="771.34" y="67.44" width="23.14" height="294.03"></rect>
          <circle class="cls-1" cx="782.91" cy="56.27" r="34.14"></circle>
          <path class="cls-6" d="m799.07,73.77c-12.3,9.33-29.48,7.72-39.86-3.22,4.85,8.02,13.65,13.39,23.71,13.39,15.29,0,27.68-12.39,27.68-27.68,0-.54-.02-1.08-.05-1.61-1.19,7.34-5.08,14.26-11.47,19.11Z"></path>
        </g>
        <path class="cls-9" d="m1035.89,461.35c-7.67-18.15-14.81-32.28-20.89-40.91,9.84,40.92,10.11,93-19.88,135.97-.58.84-1.18,1.68-1.79,2.5-1.35,1.85-2.76,3.67-4.22,5.48-.51.63-1.03,1.25-1.55,1.89-1.17,1.39-2.39,2.79-3.64,4.16-.55.6-1.1,1.2-1.67,1.8-1.11,1.18-2.25,2.35-3.41,3.5-.77.77-1.57,1.54-2.37,2.31-.8.75-1.62,1.51-2.44,2.27-4.32,3.92-8.99,7.7-14.02,11.34-.76.54-1.53,1.09-2.31,1.64-15.34,10.65-34,19.91-56.57,27.22h-.01c1.57,2.7,3.82,7.41,6.68,13.64,57.47-19.05,96.29-51.96,115.38-97.78,10.72-25.76,13.6-51.81,12.71-75.01Z"></path>
        <path class="cls-9" d="m542.84,536.36c19.09,45.83,57.91,78.74,115.39,97.79,2.86-6.23,5.12-10.95,6.68-13.65h-.01c-22.57-7.3-41.24-16.56-56.58-27.22-.77-.54-1.55-1.09-2.31-1.64-5.04-3.63-9.7-7.41-14.03-11.34-.82-.75-1.64-1.51-2.44-2.27-.8-.76-1.6-1.54-2.37-2.31-1.16-1.15-2.3-2.32-3.41-3.5-.56-.59-1.11-1.19-1.67-1.8-1.25-1.37-2.47-2.77-3.64-4.16-.52-.63-1.04-1.25-1.56-1.89-1.46-1.81-2.87-3.63-4.22-5.48-.6-.82-1.2-1.66-1.79-2.5-30-42.98-29.73-95.06-19.89-135.99-6.08,8.63-13.21,22.76-20.89,40.91-.89,23.2,1.99,49.25,12.71,75.02Z"></path>
        <g>
          <path class="cls-3" d="m907.93,597.75c-.02,25.41-20.36,45.99-45.44,45.97-25.07-.02-45.38-20.64-45.35-46.05.03-25.42,20.37-46,45.44-45.97,25.07.02,45.37,20.64,45.35,46.05Z"></path>
          <path class="cls-9" d="m907.93,597.75c-.02,25.41-20.36,45.99-45.44,45.97-25.07-.02-45.38-20.64-45.35-46.05.03-25.42,20.37-46,45.44-45.97,25.07.02,45.37,20.64,45.35,46.05Z"></path>
          <g>
            <path class="cls-2" d="m897.92,597.74c-.02,19.93-15.97,36.07-35.64,36.05-19.66-.02-35.59-16.19-35.57-36.12.02-19.93,15.97-36.07,35.63-36.05,19.66.02,35.59,16.19,35.57,36.12Z"></path>
            <path class="cls-7" d="m889.87,574.87c1.75,4.26,2.72,8.94,2.71,13.84-.02,19.94-15.97,36.07-35.64,36.05-11.1,0-21-5.17-27.53-13.25,5.35,13.06,18.04,22.26,32.86,22.28,19.66.02,35.62-16.12,35.64-36.05,0-8.68-3.01-16.64-8.04-22.87Z"></path>
          </g>
        </g>
        <g>
          <path class="cls-3" d="m749.49,597.6c-.02,25.41-20.37,45.99-45.44,45.97-25.07-.02-45.37-20.64-45.35-46.05.03-25.41,20.37-45.99,45.44-45.97,25.07.02,45.38,20.64,45.35,46.05Z"></path>
          <path class="cls-9" d="m749.49,597.6c-.02,25.41-20.37,45.99-45.44,45.97-25.07-.02-45.37-20.64-45.35-46.05.03-25.41,20.37-45.99,45.44-45.97,25.07.02,45.38,20.64,45.35,46.05Z"></path>
          <g>
            <path class="cls-2" d="m739.7,597.59c-.02,19.93-15.97,36.07-35.63,36.06-19.66-.02-35.59-16.19-35.57-36.12.02-19.93,15.98-36.07,35.64-36.05,19.66.02,35.59,16.19,35.57,36.12Z"></path>
            <path class="cls-7" d="m731.66,574.72c1.74,4.27,2.72,8.94,2.71,13.85-.02,19.93-15.97,36.07-35.64,36.05-11.1,0-21.01-5.17-27.53-13.25,5.35,13.06,18.04,22.26,32.86,22.27,19.66.02,35.62-16.12,35.63-36.06,0-8.68-3.01-16.64-8.04-22.87Z"></path>
          </g>
        </g>
      </g>
      <path class="cls-8" d="m1047.02,586.76c10.44,25.79,18.61,52.36,25.67,79.23,2.85,11.36,5.27,22.83,6.63,34.48,2.67,23.55,2.65,57.82-16.96,74.49-7.64,6.17-17.57,8.13-27.09,7.08,8.9-.91,17.96-3.84,24.13-10.36,21.09-23.07,11.09-75.44,5.02-103.69-5.82-26.2-12.42-54.92-17.39-81.23h0Z"></path>
      <path class="cls-8" d="m518.8,586.76c-4.96,26.27-11.58,55.05-17.39,81.23-6.05,28.21-16.08,80.6,5.02,103.69,6.17,6.52,15.23,9.44,24.13,10.36-9.52,1.05-19.45-.9-27.09-7.08-21.06-17.91-19.78-56.45-16.01-81.48,1.34-9.28,3.42-18.41,5.67-27.49,7.06-26.87,15.22-53.44,25.67-79.23h0Z"></path>
      <g>
        <path class="cls-7" d="m695.93,434.76c28.67-5.26,57.87-7.37,86.99-7.96,29.12-.18,58.54,1.27,86.97,7.96-57.01-5.4-116.73-2.47-173.96,0h0Z"></path>
        <path class="cls-7" d="m719.12,414.85c39.63-7.73,88.29-9.83,127.58,0-42.57-3.03-84.98-.92-127.58,0h0Z"></path>
        <path class="cls-7" d="m743.66,396.76c23.47-6.04,55.29-7.33,78.51,0-25.49-.51-53.09.75-78.51,0h0Z"></path>
      </g>
    </g>
  </g>
</svg>
