<svg width="1363" height="411" viewBox="0 0 1363 411" fill="none" xmlns="http://www.w3.org/2000/svg">
<path d="M204.638 0C96.767 0 8.39737 83.0382 0 188.567L110.062 233.997C119.387 227.63 130.654 223.899 142.774 223.899C143.86 223.899 144.942 223.936 146.014 223.996L194.959 153.17C194.959 152.831 194.955 152.502 194.955 152.169C194.955 109.537 229.691 74.854 272.397 74.854C315.099 74.854 349.835 109.537 349.835 152.169C349.835 194.8 315.099 229.488 272.397 229.488C271.807 229.488 271.223 229.474 270.638 229.46L200.831 279.187C200.868 280.091 200.901 281.013 200.901 281.93C200.901 313.935 174.827 339.962 142.774 339.962C114.639 339.962 91.1131 319.913 85.7841 293.363L7.0744 260.877C31.4449 346.927 110.633 410.014 204.638 410.014C318.051 410.014 409.986 318.227 409.986 205.014C409.986 91.7832 318.046 0 204.638 0Z" fill="white"/>
<path d="M128.681 311.067L103.456 300.662C107.926 309.954 115.66 317.735 125.928 322.008C148.126 331.24 173.717 320.725 182.969 298.545C187.448 287.821 187.476 275.98 183.034 265.228C178.601 254.472 170.236 246.084 159.48 241.607C148.808 237.172 137.375 237.334 127.33 241.12L153.385 251.877C169.758 258.689 177.501 277.458 170.677 293.804C163.867 310.154 145.053 317.884 128.681 311.067Z" fill="white"/>
<path d="M323.993 152.169C323.993 123.765 300.848 100.653 272.392 100.653C243.942 100.653 220.792 123.765 220.792 152.169C220.792 180.577 243.942 203.679 272.392 203.679C300.848 203.675 323.993 180.573 323.993 152.169ZM233.715 152.081C233.715 130.707 251.072 113.384 272.481 113.384C293.89 113.384 311.246 130.707 311.246 152.081C311.246 173.454 293.89 190.777 272.481 190.777C251.072 190.777 233.715 173.45 233.715 152.081Z" fill="white"/>
<path d="M629.288 140.268L615.529 164.413C604.931 157.021 590.569 152.572 578.031 152.572C563.701 152.572 554.835 158.494 554.835 169.103C554.835 181.991 570.585 184.989 593.995 193.377C619.159 202.261 633.623 212.702 633.623 235.712C633.623 267.193 608.826 284.873 573.185 284.873C555.814 284.873 534.86 280.396 518.752 270.613L528.788 243.845C541.874 250.746 557.527 254.838 571.481 254.838C590.29 254.838 599.231 247.91 599.231 237.668C599.231 225.947 585.597 222.425 563.589 215.149C538.509 206.789 521.129 195.82 521.129 170.354C521.129 141.635 544.167 125.141 577.316 125.141C600.419 125.141 618.987 132.449 629.288 140.268Z" fill="white"/>
<path d="M736.843 155.529V282.227H704.446V155.529H657.423V127.788H783.727V155.529H736.843Z" fill="white"/>
<path d="M852.02 155.445V190.245H914.018V217.986H852.02V254.231H923.952V282.227H819.633V127.788H923.952V155.445H852.02Z" fill="white"/>
<path d="M996.261 252.243L986.02 282.232H952.06L1010.06 127.792H1042.67L1102.31 282.227H1067.2L1056.74 252.238L996.261 252.243ZM1026.18 164.63L1005.06 226.466H1047.74L1026.18 164.63Z" fill="white"/>
<path d="M1268.57 187.483L1226.24 277.727H1207.96L1166.31 188.289V282.227H1135.29V127.788H1166.24L1218.23 239.271L1268.37 127.788H1299.6V282.227H1268.58L1268.57 187.483Z" fill="white"/>
<path d="M1362.23 147.27C1362.23 160.543 1352.26 168.816 1340.83 168.816C1329.36 168.816 1319.37 160.543 1319.37 147.27C1319.37 134.002 1329.36 125.786 1340.83 125.786C1352.27 125.786 1362.23 134.002 1362.23 147.27ZM1322.97 147.27C1322.97 158.374 1330.98 165.349 1340.83 165.349C1350.64 165.349 1358.62 158.374 1358.62 147.27C1358.62 136.134 1350.64 129.266 1340.83 129.266C1331.01 129.266 1322.97 136.218 1322.97 147.27ZM1341.13 136.292C1346.68 136.292 1348.54 139.221 1348.54 142.386C1348.54 145.287 1346.82 147.233 1344.72 148.225L1349.69 157.526H1345.62L1341.43 149.282H1337.11V157.526H1333.72V136.292H1341.13ZM1337.14 146.172H1340.92C1343.37 146.172 1344.81 144.638 1344.81 142.71C1344.81 140.764 1343.77 139.513 1340.91 139.513H1337.14V146.172H1337.14Z" fill="white"/>
</svg>
