<?xml version="1.0" encoding="UTF-8" standalone="no"?>
<svg
   width="1024"
   height="386"
   viewBox="0 0 1024 386"
   fill="none"
   version="1.1"
   id="svg17"
   sodipodi:docname="switch-logo-black.svg"
   inkscape:version="1.4.2 (ebf0e940d0, 2025-05-08)"
   xmlns:inkscape="http://www.inkscape.org/namespaces/inkscape"
   xmlns:sodipodi="http://sodipodi.sourceforge.net/DTD/sodipodi-0.dtd"
   xmlns="http://www.w3.org/2000/svg"
   xmlns:svg="http://www.w3.org/2000/svg">
  <defs
     id="defs17" />
  <sodipodi:namedview
     id="namedview17"
     pagecolor="#505050"
     bordercolor="#eeeeee"
     borderopacity="1"
     inkscape:showpageshadow="0"
     inkscape:pageopacity="0"
     inkscape:pagecheckerboard="0"
     inkscape:deskcolor="#d1d1d1"
     inkscape:zoom="0.86376953"
     inkscape:cx="733.41323"
     inkscape:cy="210.70435"
     inkscape:window-width="1920"
     inkscape:window-height="1025"
     inkscape:window-x="0"
     inkscape:window-y="27"
     inkscape:window-maximized="1"
     inkscape:current-layer="svg17" />
  <path
     d="M224.555 192.788C224.555 131.726 224.555 70.391 224.555 9.32858C224.555 0.0601756 224.555 -0.212428 233.823 0.060172C256.176 0.332772 278.802 -0.757628 301.155 1.42317C347.497 6.32997 385.389 47.22 385.934 94.1072C387.024 159.804 387.024 225.773 385.934 291.47C385.116 341.628 342.59 383.608 292.159 385.244C271.714 386.062 251.542 385.244 231.097 385.517C224.009 385.517 224.555 381.428 224.555 376.793C224.555 315.458 224.555 254.123 224.555 192.788ZM339.592 212.143C339.592 190.88 322.691 173.706 301.428 173.706C279.62 173.706 262.446 190.608 262.446 212.143C262.446 233.678 279.892 250.852 301.155 250.852C322.418 250.852 339.319 233.406 339.592 212.416V212.143Z"
     fill="black"
     id="path1" />
  <path
     d="M186.663 192.788C186.663 253.85 186.663 315.185 186.663 376.248C186.663 385.516 186.663 385.516 177.394 385.516C151.77 385.516 125.873 385.516 100.249 385.516C44.0931 385.516 0.47705 342.173 0.20445 286.29C-0.06815 223.864 -0.06815 161.711 0.20445 99.286C0.20445 43.6756 44.093 0.33217 99.7034 0.0595703C125.873 0.0595703 152.043 0.0595703 178.212 0.0595703C185.027 0.0595703 186.935 2.24037 186.935 8.78277C186.935 70.1178 186.935 131.453 186.935 192.788H186.663ZM154.223 352.804C154.223 351.168 154.496 349.26 154.496 347.352C154.496 244.309 154.496 141.539 154.496 38.4962C154.496 32.7716 152.315 31.4086 147.136 31.6812C132.688 31.6812 118.24 31.6812 103.52 31.6812C59.6312 31.6812 31.2808 59.4864 31.2808 103.375C31.2808 162.802 31.2808 222.501 31.2808 281.928C31.2808 285.472 31.2808 289.016 31.5534 292.559C33.7342 322.273 56.9053 349.26 86.3461 352.259C108.154 354.712 130.507 352.804 153.678 352.804H154.223Z"
     fill="black"
     id="path2" />
  <path
     d="M638.088 241.311C642.722 223.864 647.902 206.418 651.991 188.699C653.626 181.066 656.898 178.613 664.258 179.703C667.256 180.248 670.255 179.703 674.344 179.703C673.799 182.702 673.526 184.882 672.981 186.791C665.621 212.688 658.261 238.312 651.173 264.209C649.81 269.388 647.357 271.024 641.905 271.024C626.639 270.751 626.639 271.024 622.277 256.031C618.461 242.128 614.372 228.226 610.01 212.415C604.831 230.952 599.924 247.58 595.29 264.209C593.927 269.388 591.746 271.297 586.294 271.024C571.029 270.751 571.029 271.024 566.667 256.031C560.397 233.678 553.855 211.052 547.585 188.699C546.767 185.973 546.222 183.519 545.404 179.703C551.947 179.703 557.399 179.158 562.851 179.703C564.486 179.703 566.394 182.974 566.94 185.155C571.574 201.238 575.663 217.594 580.024 233.678C580.57 236.131 581.387 238.585 582.75 242.401C583.841 239.13 584.659 237.494 585.204 235.586C589.838 219.775 594.745 203.964 599.106 187.881C600.742 181.611 602.923 178.613 610.283 178.885C617.371 178.885 619.279 181.611 620.914 187.608C625.003 203.419 629.91 218.957 634.544 234.496C635.09 236.676 635.907 238.857 636.725 240.765C637.27 240.765 637.816 240.765 638.088 240.765V241.311Z"
     fill="black"
     id="path3" />
  <path
     d="M1020 270.752H1001.19V235.042H974.205C964.209 235.042 959.212 240.039 959.212 250.035C959.212 256.577 959.212 263.119 959.212 270.207H940.402V179.976H958.939V214.869H1000.92C1000.92 205.873 1001.46 196.878 1000.92 187.882C1000.37 181.067 1002.56 178.341 1009.37 179.431C1011.28 179.704 1013.19 179.431 1015.09 179.431C1019.46 179.159 1020.82 180.794 1020.82 185.156C1020.82 212.416 1020.82 239.676 1020.82 267.208C1020.82 268.026 1020.82 269.117 1020.27 270.752H1020Z"
     fill="black"
     id="path4" />
  <path
     d="M528.776 184.065C525.778 191.697 523.597 196.332 522.234 199.603C509.421 198.24 497.7 196.877 485.978 196.332C480.253 196.332 472.893 197.149 472.348 204.237C471.803 212.142 479.436 212.415 484.888 213.778C495.246 216.504 505.878 218.14 516.237 221.411C530.412 226.045 535.591 232.86 535.319 244.854C535.319 257.394 528.776 266.39 515.419 270.479C493.611 276.749 472.348 274.295 450.812 264.209C453.811 258.757 456.537 253.85 458.173 250.579C471.53 252.76 483.524 255.213 495.519 256.304C500.153 256.849 505.333 255.213 509.694 253.305C512.42 251.942 515.419 247.853 515.419 244.854C515.419 242.401 511.875 238.585 509.149 237.767C500.698 235.313 491.702 233.95 483.252 231.77C476.709 230.134 469.895 228.498 463.897 225.5C449.177 218.14 447.269 200.421 459.536 189.517C468.531 181.611 479.708 178.34 491.43 178.885C503.424 179.43 515.146 182.156 528.504 184.065H528.776Z"
     fill="black"
     id="path5" />
  <path
     d="M919.139 199.058C914.504 203.147 909.87 207.236 905.236 211.052C887.517 194.969 871.434 193.333 858.894 206.418C848.263 217.594 848.535 234.768 859.712 245.4C872.524 257.667 889.153 255.758 904.964 239.675C909.598 243.764 914.232 247.853 918.866 251.669C911.506 267.753 888.88 277.294 868.708 272.932C846.9 268.298 830.816 249.216 830.271 227.135C829.453 204.237 844.446 184.065 866.527 178.067C886.699 172.615 909.87 181.611 919.139 198.785V199.058Z"
     fill="black"
     id="path6" />
  <path
     d="M739.769 179.703C751.49 179.703 762.394 179.703 773.298 179.703C785.838 179.703 798.65 179.703 811.19 179.703C815.279 179.703 817.187 181.066 816.914 185.428C816.914 189.789 816.914 194.151 816.914 199.603H788.564V270.752H768.119V199.876H739.769V179.976V179.703Z"
     fill="black"
     id="path7" />
  <path
     d="M697.243 180.249C710.691 178.613 717.416 183.974 717.416 196.332V270.207H697.243V180.249Z"
     fill="black"
     id="path8" />
  <path
     d="M998.193 157.35C983.745 157.35 972.296 146.173 972.023 131.998C972.023 117.55 983.473 105.556 997.92 105.556C1012.1 105.556 1023.54 117.277 1023.82 131.453C1023.82 145.9 1012.64 157.35 998.193 157.35ZM1012.37 131.18C1012.37 123.002 1005.55 116.46 997.648 116.732C989.742 116.732 983.2 123.82 983.473 131.998C983.745 139.903 990.015 145.9 997.92 145.9C1006.1 145.9 1012.37 139.631 1012.37 131.18Z"
     fill="black"
     id="path9" />
  <path
     d="M591.747 127.364V154.897C581.388 156.532 581.388 156.532 581.388 147.264C581.388 136.632 581.388 125.728 581.388 115.097C581.388 112.371 582.205 108.282 583.841 107.464C587.657 105.829 591.746 106.919 594.745 111.008C600.47 119.459 607.012 127.364 614.372 137.178V107.464C618.189 107.464 620.915 107.192 624.459 106.919V154.897C618.734 157.077 614.645 155.714 610.829 150.262C605.377 142.084 599.379 134.452 593.382 126.819L591.474 127.364H591.747Z"
     fill="black"
     id="path10" />
  <path
     d="M465.533 154.897C454.901 156.532 454.901 156.533 454.901 147.264C454.901 136.36 454.901 125.456 454.901 114.552C454.901 112.099 456.537 107.465 457.082 107.737C460.626 108.282 465.26 108.555 467.441 111.008C473.711 117.823 478.89 125.729 484.342 133.089C485.16 134.179 485.978 134.997 487.886 137.178V107.737H497.972V155.169C492.248 157.35 488.159 155.987 484.342 150.535C478.89 142.357 472.893 134.997 465.26 127.364V154.897H465.533Z"
     fill="black"
     id="path11" />
  <path
     d="M845.81 135.27C845.81 127.637 845.81 120.004 845.81 112.371C845.81 108.555 846.9 106.919 850.989 106.919C855.623 106.919 856.441 109.1 856.441 112.917C856.441 125.184 856.441 137.178 856.441 149.445C856.441 151.626 854.805 155.442 853.988 155.442C850.716 155.442 846.355 154.897 844.719 152.989C838.177 145.356 832.452 137.178 826.455 129C825.91 128.182 825.092 127.364 823.184 125.184V155.17H813.098V107.737C819.095 105.556 823.184 106.919 827 112.371C832.452 120.549 838.722 128.182 844.447 135.815L846.082 135.27H845.81Z"
     fill="black"
     id="path12" />
  <path
     d="M896.786 107.464C904.964 107.464 912.87 106.646 920.23 107.464C932.497 108.827 941.493 119.731 941.22 131.453C941.22 143.447 931.679 153.806 919.412 155.169C912.052 155.987 904.692 155.169 896.514 155.169V107.191L896.786 107.464ZM907.145 144.265C918.322 146.446 924.864 144.538 928.408 138.813C931.407 133.906 931.406 128.727 928.135 123.82C924.319 118.095 916.959 116.46 907.145 119.186V144.265Z"
     fill="black"
     id="path13" />
  <path
     d="M735.68 107.192C747.129 107.192 758.305 107.192 769.209 107.192C770.572 107.192 773.026 110.463 772.753 112.098C772.753 113.734 770.027 116.187 768.392 116.46C761.031 117.005 753.671 116.46 745.766 116.46V126.001H770.3V135.269H746.038V145.901C752.853 145.901 759.668 145.901 766.483 145.901C769.755 145.901 773.026 145.356 773.298 150.535C773.298 155.987 770.027 155.714 766.483 155.714C756.397 155.714 746.584 155.714 735.952 155.714V106.919L735.68 107.192Z"
     fill="black"
     id="path14" />
  <path
     d="M699.424 117.55C697.243 117.55 694.79 117.823 692.609 117.823C690.428 117.823 688.52 117.823 685.521 117.823V155.169H674.345V117.823H659.352V106.919C671.891 106.919 684.158 106.646 696.425 107.191C698.333 107.191 699.696 112.643 701.332 115.369C700.514 115.915 699.969 116.732 699.151 117.278L699.424 117.55Z"
     fill="black"
     id="path15" />
  <path
     d="M534.773 155.17V108.282C544.86 105.829 545.677 106.374 545.95 115.915C545.95 126.274 545.95 136.36 545.95 146.719C545.95 153.443 542.225 156.26 534.773 155.17Z"
     fill="black"
     id="path16" />
  <path
     d="M59.9043 115.915C59.9043 95.7427 75.9877 79.3867 96.1601 79.3867C116.333 79.3867 132.961 95.4701 132.961 115.643C132.961 135.815 116.605 152.171 96.4327 152.171C76.2603 152.171 59.9043 136.088 59.9043 115.915Z"
     fill="black"
     id="path17" />
  <path
     style="fill:#ffffff;stroke-width:1.15772"
     d="M 84.750567,149.54317 C 54.081098,138.57292 52.380498,96.548395 82.056142,82.959646 c 7.684901,-3.518987 20.563388,-3.387139 28.818468,0.295038 7.65642,3.415146 16.70287,13.063456 19.24563,20.526056 2.3699,6.95526 2.37674,17.00643 0.0163,23.93396 -2.3844,6.99783 -10.83809,16.34697 -18.11608,20.035 -7.9106,4.00861 -19.032169,4.74005 -27.269883,1.79347 z"
     id="path18" />
  <path
     style="fill:#ffffff;stroke-width:1.15772"
     d="M 90.880724,384.39798 C 55.898221,381.13102 26.002734,360.5806 11.018338,329.49989 1.9106188,310.60862 2.0692446,311.92149 1.281131,248.90899 0.89488095,218.02691 0.89358466,167.49259 1.2782503,136.61051 2.0570153,74.089006 1.9199195,75.269723 10.545923,56.79407 23.003526,30.111681 47.294154,10.512936 76.620106,3.4825151 85.45059,1.3655499 90.306295,1.173265 135.12264,1.1658272 c 47.1386,-0.00782 48.91529,0.071348 50.07123,2.2312115 1.58014,2.9525271 1.64539,377.3066413 0.0662,379.8070313 -0.9389,1.4866 -7.14406,1.75976 -43.1072,1.89771 -23.10573,0.0886 -46.178195,-0.22809 -51.272146,-0.7038 z m 47.755796,-30.89999 16.49745,-0.75471 V 193.95866 c 0,-128.804163 -0.28538,-159.174911 -1.51146,-160.851678 -1.40416,-1.920303 -3.84936,-2.033387 -34.44206,-1.592836 -31.955731,0.460177 -33.207458,0.56586 -42.283099,3.569966 -22.698768,7.513465 -37.402219,23.382577 -43.402471,46.843339 -2.128108,8.320824 -2.236542,13.747608 -2.236542,111.931969 0,113.25885 -0.225833,109.28263 7.056873,124.24952 6.787378,13.94893 23.152943,28.31136 36.770967,32.27023 12.093367,3.51564 32.733652,4.52859 63.550342,3.11882 z"
     id="path19" />
  <path
     style="fill:#ffffff;stroke-width:1.15772"
     d="m 228.37883,384.24942 c -1.40519,-0.5198 -2.84649,-2.13986 -3.20288,-3.60009 -0.93821,-3.84417 -0.1526,-377.9887931 0.79567,-378.9369052 1.26425,-1.26402209 66.59034,-0.76459767 76.19231,0.5824979 11.72809,1.6453744 19.70802,4.0611779 29.45262,8.9163273 28.43168,14.165795 48.69035,41.75222 52.59633,71.620917 1.63181,12.478308 2.36932,107.544843 1.32431,170.707683 -0.79913,48.302 -1.01147,52.05766 -3.40117,60.15649 -7.58584,25.70885 -26.36831,48.43176 -49.74422,60.18025 -14.1254,7.09929 -22.98253,9.33389 -41.80503,10.54718 -19.85673,1.27996 -58.56988,1.17146 -62.20794,-0.17435 z m 88.83542,-136.4653 c 11.89634,-6.12514 18.00187,-13.62196 21.55906,-26.4718 4.65342,-16.80982 -3.84199,-35.62767 -19.82249,-43.90801 -8.31999,-4.31101 -22.79102,-4.97895 -32.07063,-1.48026 -9.16395,3.45506 -17.13666,10.94541 -21.24643,19.96098 -2.78961,6.11954 -3.32067,8.78565 -3.29771,16.5559 0.0509,17.23157 8.21781,29.1884 24.68551,36.141 8.59776,3.62994 22.29606,3.26798 30.19269,-0.79781 z"
     id="path20" />
  <path
     style="fill:#ffffff;stroke-width:1.15772"
     d="m 455.71217,152.52911 c -1.14662,-4.2786 -0.82066,-37.5252 0.39937,-40.73413 2.30858,-6.07204 8.89231,-3.31151 16.81554,7.05069 3.18372,4.16375 7.87247,10.25492 10.41944,13.53594 l 4.63087,5.96548 0.32402,-14.76088 0.32401,-14.76089 h 4.59628 4.59628 v 23.15433 23.15432 h -3.83074 c -4.8481,0 -6.37426,-1.2057 -12.96864,-10.24558 -6.25055,-8.56854 -14.3135,-17.53961 -15.76412,-17.53961 -0.55565,0 -1.01027,6.25167 -1.01027,13.8926 v 13.89259 h -3.91699 c -3.0834,0 -4.06553,-0.55434 -4.61505,-2.60486 z"
     id="path21" />
  <path
     style="fill:#ffffff;stroke-width:1.15772"
     d="m 534.8649,132.24823 c 0,-20.06475 0.24578,-23.26949 1.83126,-23.8779 3.33366,-1.27925 7.17232,-0.72987 7.88546,1.12854 0.3865,1.00719 0.70272,10.54561 0.70272,21.19648 0,21.30948 -0.40257,22.76021 -6.65687,23.98888 l -3.76257,0.73917 z"
     id="path22" />
  <path
     style="fill:#ffffff;stroke-width:1.15772"
     d="m 474.66365,271.56852 c -6.87264,-1.52753 -13.40406,-3.57342 -19.42363,-6.08424 l -3.79447,-1.5827 3.11671,-5.47029 c 1.71418,-3.00866 3.43794,-5.85123 3.83057,-6.31681 0.39263,-0.46558 6.65284,0.17246 13.91157,1.41786 20.49111,3.51571 28.65558,3.85687 34.71711,1.45067 6.56977,-2.60794 10.28878,-8.23647 8.31072,-12.57786 -1.68965,-3.70835 -5.79556,-5.35715 -22.75927,-9.13933 -17.78456,-3.96521 -26.80446,-6.99166 -31.53629,-10.58141 -14.50211,-11.00183 -10.56081,-29.35104 8.29869,-38.63554 10.36763,-5.10397 19.80477,-5.62476 41.23599,-2.27561 9.22262,1.44125 16.89756,2.72176 17.05544,2.84557 0.15788,0.1238 -1.11636,3.47767 -2.83164,7.45303 -2.99794,6.94807 -3.2556,7.20376 -6.65449,6.60363 -1.94469,-0.34337 -10.22849,-1.21221 -18.40844,-1.93075 -21.95031,-1.92817 -27.384,-0.27652 -27.384,8.32377 0,5.88684 1.93924,6.98821 19.10232,10.84893 34.72616,7.81142 41.36437,11.77471 43.00542,25.676 1.30151,11.02507 -3.98543,20.99337 -13.78622,25.99336 -10.2468,5.22753 -31.94991,7.10588 -46.00609,3.98172 z"
     id="path23" />
  <path
     style="fill:#ffffff;stroke-width:1.15772"
     d="m 577.21611,269.76532 c -2.49497,-0.48071 -5.17555,-1.74824 -5.95686,-2.81675 -1.60741,-2.19826 -25.30989,-85.08033 -24.5488,-85.84143 0.27074,-0.27073 3.9858,-0.58849 8.2557,-0.70614 5.43311,-0.14969 8.25282,0.28302 9.3937,1.44156 0.89663,0.9105 5.10297,14.67977 9.34742,30.59837 4.24445,15.9186 8.12381,29.37994 8.62081,29.9141 1.07097,1.15105 3.46164,-5.96945 12.1813,-36.28154 7.12788,-24.77862 8.22045,-26.62748 15.73533,-26.62748 5.86617,0 8.40358,2.6241 10.80283,11.17192 7.46109,26.5816 14.77377,49.6171 15.99018,50.37033 1.67274,1.03579 0.92493,3.34694 10.16009,-31.40048 3.80174,-14.30411 7.65009,-26.7453 8.55189,-27.6471 1.13087,-1.13087 4.07019,-1.58692 9.473,-1.46976 4.30836,0.0934 7.99853,0.33502 8.2004,0.53688 0.42958,0.42957 -19.65213,72.69786 -22.56475,81.20411 -2.53196,7.39454 -5.82269,9.17304 -14.87905,8.04153 -3.61811,-0.45205 -7.35783,-1.68172 -8.4568,-2.78069 -1.09204,-1.09204 -5.20946,-13.53787 -9.23742,-27.92217 -3.99694,-14.27357 -7.55761,-26.43467 -7.91259,-27.02469 -0.35498,-0.59001 -4.19598,11.39235 -8.53556,26.62748 -5.84779,20.53002 -8.52766,28.22465 -10.35302,29.72622 -2.56879,2.11314 -6.59877,2.36332 -14.2678,0.88573 z"
     id="path24" />
  <path
     style="fill:#ffffff;stroke-width:1.15772"
     d="m 583.15794,154.41703 c -1.00243,-1.00243 -1.11648,-42.33168 -0.12396,-44.91816 0.84317,-2.19727 6.20601,-2.43211 8.77172,-0.38412 0.99714,0.79593 6.43667,7.65901 12.08787,15.25129 l 10.27489,13.80413 0.32303,-15.25128 0.32303,-15.25128 h 4.59726 4.59726 v 23.73318 23.73318 h -2.9704 c -4.95046,0 -6.92957,-1.79701 -17.22181,-15.63728 -5.44206,-7.31809 -10.40269,-13.30562 -11.02362,-13.30562 -0.65433,0 -1.26561,5.96223 -1.45402,14.18202 l -0.32506,14.18203 -3.51476,0.34429 c -1.93311,0.18937 -3.88676,-0.0277 -4.34143,-0.48238 z"
     id="path25" />
  <path
     style="fill:#ffffff;stroke-width:1.15772"
     d="m 674.94856,136.03166 v -19.10232 h -7.52516 -7.52515 v -4.63087 -4.63086 h 18.49373 18.49373 l 1.81361,3.50715 c 0.99749,1.92893 1.5011,4.01282 1.11912,4.63086 -0.38197,0.61805 -3.78958,1.12372 -7.57246,1.12372 H 685.368 v 19.10232 19.10231 h -5.20972 -5.20972 z"
     id="path26" />
  <path
     style="fill:#ffffff;stroke-width:1.15772"
     d="m 736.30752,131.43095 v -23.76334 h 16.64513 c 13.77484,0 16.90754,0.31619 18.16689,1.83362 1.10272,1.32869 1.18751,2.36479 0.3079,3.76257 -0.98535,1.56582 -3.53363,1.99083 -13.53603,2.25756 l -12.32216,0.3286 v 5.17055 5.17056 h 12.15602 12.15602 v 4.05201 4.052 h -12.15602 -12.15602 v 5.78858 5.78858 l 10.70887,0.0158 c 14.57288,0.0215 16.13233,0.52397 15.69124,5.05575 l -0.3515,3.61132 -17.65517,0.31958 -17.65517,0.31958 z"
     id="path27" />
  <path
     style="fill:#ffffff;stroke-width:1.15772"
     d="m 698.10288,225.17581 v -44.57208 h 4.1095 c 2.26023,0 5.63773,0.79028 7.50556,1.75617 6.73344,3.482 6.9084,4.69686 6.9084,47.96814 v 39.41984 h -9.26173 -9.26173 z"
     id="path28" />
  <path
     style="fill:#ffffff;stroke-width:1.15772"
     d="m 768.72357,234.43754 v -35.31035 h -14.47145 -14.47145 v -9.27755 -9.27755 l 37.9152,0.30525 37.91521,0.30525 0.33813,8.9723 0.33812,8.9723 h -13.94129 -13.94129 v 35.31035 35.31034 h -9.84059 -9.84059 z"
     id="path29" />
  <path
     style="fill:#ffffff;stroke-width:1.15772"
     d="m 813.8745,131.40079 v -23.73318 h 3.83541 c 4.4687,0 5.75623,1.26091 18.02792,17.65517 4.6471,6.20825 8.92255,11.28773 9.501,11.28773 0.57845,0 1.05971,-5.86093 1.06946,-13.0243 0.01,-7.16337 0.45701,-13.71724 0.9939,-14.56416 0.55446,-0.87462 2.42236,-1.37476 4.32371,-1.15772 l 3.34753,0.38214 0.32943,20.83889 c 0.40359,25.53065 0.21738,26.56318 -4.61611,25.59648 -4.89084,-0.97817 -5.49643,-1.58043 -16.94391,-16.85081 l -10.02775,-13.37654 -0.32303,15.33974 -0.32303,15.33974 h -4.59726 -4.59727 z"
     id="path30" />
  <path
     style="fill:#ffffff;stroke-width:1.15772"
     d="m 863.62517,270.65226 c -14.70951,-5.14579 -26.59177,-17.45837 -30.79221,-31.90738 -2.96919,-10.21365 -1.80983,-24.35114 2.78118,-33.91438 7.18926,-14.97548 23.58187,-26.28372 39.78153,-27.4428 14.63731,-1.0473 31.71118,6.02626 39.61838,16.41354 l 3.31253,4.3515 -3.31253,3.4873 c -1.82189,1.91802 -4.76307,4.52985 -6.53596,5.80407 l -3.22344,2.31676 -3.72286,-2.83716 c -16.67919,-12.71103 -32.93092,-12.59426 -43.98165,0.31603 -14.94071,17.45486 -3.5117,44.63051 19.38294,46.08833 8.37161,0.53307 14.10335,-1.53492 22.84076,-8.24085 l 5.43806,-4.17369 6.35932,5.34679 c 6.19452,5.20824 6.31764,5.42737 4.75109,8.45674 -2.4508,4.73933 -9.47508,10.35528 -17.85965,14.2789 -10.43035,4.88095 -23.80234,5.5167 -34.83749,1.6563 z"
     id="path31" />
  <path
     style="fill:#ffffff;stroke-width:1.15772"
     d="m 897.23007,131.40079 v -23.73318 h 11.40441 c 6.27242,0 13.1753,0.59292 15.33974,1.3176 9.75398,3.26576 16.20175,11.84688 16.25437,21.63241 0.0385,7.15634 -1.71757,11.43535 -6.86862,16.73687 -5.44671,5.60583 -12.68914,7.77948 -25.92058,7.77948 h -10.20932 z m 27.50869,12.06002 c 3.58993,-2.24194 6.06508,-7.31839 6.06508,-12.43925 0,-9.00381 -8.39548,-14.80139 -19.27457,-13.31024 l -5.03747,0.69046 v 13.07148 c 0,11.45032 0.25127,13.14536 2.02601,13.66712 3.29094,0.96751 13.70974,-0.11129 16.22095,-1.67957 z"
     id="path32" />
  <path
     style="fill:#ffffff;stroke-width:1.15772"
     d="m 988.72425,155.00363 c -9.95892,-3.97458 -17.05332,-15.42895 -15.84982,-25.59059 0.37615,-3.17604 1.97163,-7.97195 3.54551,-10.65756 6.77736,-11.5647 21.2931,-15.67036 32.95756,-9.32178 15.3556,8.35757 18.2742,29.03958 5.7471,40.72472 -5.9113,5.51397 -18.79842,7.87912 -26.40035,4.84521 z m 17.42325,-11.10652 c 3.7772,-2.23123 6.8542,-7.84116 6.8542,-12.49632 0,-12.70097 -15.62395,-19.86571 -24.78886,-11.36753 -7.43839,6.89727 -6.76401,18.77548 1.35166,23.80743 4.10481,2.54511 12.3226,2.57307 16.583,0.0564 z"
     id="path33" />
  <path
     style="fill:#ffffff;stroke-width:1.15772"
     d="m 941.22329,225.17581 v -44.57208 h 8.68287 8.68287 v 17.36574 17.36575 h 21.41775 21.41772 v -16.12534 c 0,-19.26565 0.3684,-19.99356 9.7873,-19.33933 3.3805,0.23481 6.729,0.78706 7.4413,1.22723 0.9179,0.56733 1.2949,13.58775 1.2949,44.72521 v 43.92489 h -9.2617 -9.2618 v -17.36574 -17.36575 h -17.10811 c -13.94291,0 -17.60682,0.34929 -19.80347,1.88788 -4.40877,3.08803 -5.92389,8.5177 -5.92389,21.22926 v 11.61435 h -8.68287 -8.68287 z"
     id="path34" />
</svg>
